<svg width="29" height="18" viewBox="0 0 29 18" fill="none" xmlns="http://www.w3.org/2000/svg">
<path d="M0.588438 9.024C0.588438 6.256 1.05244 4.096 1.98044 2.544C2.92444 0.975999 4.54044 0.191999 6.82844 0.191999C9.11644 0.191999 10.7244 0.975999 11.6524 2.544C12.5964 4.096 13.0684 6.256 13.0684 9.024C13.0684 11.824 12.5964 14.016 11.6524 15.6C10.7244 17.168 9.11644 17.952 6.82844 17.952C4.54044 17.952 2.92444 17.168 1.98044 15.6C1.05244 14.016 0.588438 11.824 0.588438 9.024ZM10.3804 9.024C10.3804 7.728 10.2924 6.632 10.1164 5.736C9.95644 4.84 9.62044 4.112 9.10844 3.552C8.59644 2.976 7.83644 2.688 6.82844 2.688C5.82044 2.688 5.06044 2.976 4.54844 3.552C4.03644 4.112 3.69244 4.84 3.51644 5.736C3.35644 6.632 3.27644 7.728 3.27644 9.024C3.27644 10.368 3.35644 11.496 3.51644 12.408C3.67644 13.32 4.01244 14.056 4.52444 14.616C5.05244 15.176 5.82044 15.456 6.82844 15.456C7.83644 15.456 8.59644 15.176 9.10844 14.616C9.63644 14.056 9.98044 13.32 10.1404 12.408C10.3004 11.496 10.3804 10.368 10.3804 9.024ZM27.2434 2.856H19.2034V7.632C19.5394 7.184 20.0354 6.808 20.6914 6.504C21.3634 6.2 22.0754 6.048 22.8274 6.048C24.1714 6.048 25.2594 6.336 26.0914 6.912C26.9394 7.488 27.5394 8.216 27.8914 9.096C28.2594 9.976 28.4434 10.904 28.4434 11.88C28.4434 13.064 28.2114 14.12 27.7474 15.048C27.2994 15.96 26.6194 16.68 25.7074 17.208C24.8114 17.736 23.7074 18 22.3954 18C20.6514 18 19.2514 17.568 18.1954 16.704C17.1394 15.84 16.5074 14.696 16.2994 13.272H18.9634C19.1394 14.024 19.5314 14.624 20.1394 15.072C20.7474 15.504 21.5074 15.72 22.4194 15.72C23.5554 15.72 24.4034 15.376 24.9634 14.688C25.5394 14 25.8274 13.088 25.8274 11.952C25.8274 10.8 25.5394 9.92 24.9634 9.312C24.3874 8.688 23.5394 8.376 22.4194 8.376C21.6354 8.376 20.9714 8.576 20.4274 8.976C19.8994 9.36 19.5154 9.888 19.2754 10.56H16.6834V0.456H27.2434V2.856Z" fill="#2405F2"/>
</svg>
