<svg width="30" height="18" viewBox="0 0 30 18" fill="none" xmlns="http://www.w3.org/2000/svg">
<path d="M0.482969 9.024C0.482969 6.256 0.946969 4.096 1.87497 2.544C2.81897 0.975999 4.43497 0.191999 6.72297 0.191999C9.01097 0.191999 10.619 0.975999 11.547 2.544C12.491 4.096 12.963 6.256 12.963 9.024C12.963 11.824 12.491 14.016 11.547 15.6C10.619 17.168 9.01097 17.952 6.72297 17.952C4.43497 17.952 2.81897 17.168 1.87497 15.6C0.946969 14.016 0.482969 11.824 0.482969 9.024ZM10.275 9.024C10.275 7.728 10.187 6.632 10.011 5.736C9.85097 4.84 9.51497 4.112 9.00297 3.552C8.49097 2.976 7.73097 2.688 6.72297 2.688C5.71497 2.688 4.95497 2.976 4.44297 3.552C3.93097 4.112 3.58697 4.84 3.41097 5.736C3.25097 6.632 3.17097 7.728 3.17097 9.024C3.17097 10.368 3.25097 11.496 3.41097 12.408C3.57097 13.32 3.90697 14.056 4.41897 14.616C4.94697 15.176 5.71497 15.456 6.72297 15.456C7.73097 15.456 8.49097 15.176 9.00297 14.616C9.53097 14.056 9.87497 13.32 10.035 12.408C10.195 11.496 10.275 10.368 10.275 9.024ZM15.522 14.352V12.288L23.586 0.719999H26.898V11.976H29.13V14.352H26.898V18H24.21V14.352H15.522ZM24.33 3.504L18.666 11.976H24.33V3.504Z" fill="#2405F2"/>
</svg>
