<svg width="21" height="18" viewBox="0 0 21 18" fill="none" xmlns="http://www.w3.org/2000/svg">
<path d="M0.557188 9.024C0.557188 6.256 1.02119 4.096 1.94919 2.544C2.89319 0.975999 4.50919 0.191999 6.79719 0.191999C9.08519 0.191999 10.6932 0.975999 11.6212 2.544C12.5652 4.096 13.0372 6.256 13.0372 9.024C13.0372 11.824 12.5652 14.016 11.6212 15.6C10.6932 17.168 9.08519 17.952 6.79719 17.952C4.50919 17.952 2.89319 17.168 1.94919 15.6C1.02119 14.016 0.557188 11.824 0.557188 9.024ZM10.3492 9.024C10.3492 7.728 10.2612 6.632 10.0852 5.736C9.92519 4.84 9.58919 4.112 9.07719 3.552C8.56519 2.976 7.80519 2.688 6.79719 2.688C5.78919 2.688 5.02919 2.976 4.51719 3.552C4.00519 4.112 3.66119 4.84 3.48519 5.736C3.32519 6.632 3.24519 7.728 3.24519 9.024C3.24519 10.368 3.32519 11.496 3.48519 12.408C3.64519 13.32 3.98119 14.056 4.49319 14.616C5.02119 15.176 5.78919 15.456 6.79719 15.456C7.80519 15.456 8.56519 15.176 9.07719 14.616C9.60519 14.056 9.94919 13.32 10.1092 12.408C10.2692 11.496 10.3492 10.368 10.3492 9.024ZM15.5722 3V0.503999H20.5642V18H17.8042V3H15.5722Z" fill="#2405F2"/>
</svg>
