<svg width="28" height="19" viewBox="0 0 28 19" fill="none" xmlns="http://www.w3.org/2000/svg">
<path d="M0.6275 9.024C0.6275 6.256 1.0915 4.096 2.0195 2.544C2.9635 0.975999 4.5795 0.191999 6.8675 0.191999C9.1555 0.191999 10.7635 0.975999 11.6915 2.544C12.6355 4.096 13.1075 6.256 13.1075 9.024C13.1075 11.824 12.6355 14.016 11.6915 15.6C10.7635 17.168 9.1555 17.952 6.8675 17.952C4.5795 17.952 2.9635 17.168 2.0195 15.6C1.0915 14.016 0.6275 11.824 0.6275 9.024ZM10.4195 9.024C10.4195 7.728 10.3315 6.632 10.1555 5.736C9.9955 4.84 9.6595 4.112 9.1475 3.552C8.6355 2.976 7.8755 2.688 6.8675 2.688C5.8595 2.688 5.0995 2.976 4.5875 3.552C4.0755 4.112 3.7315 4.84 3.5555 5.736C3.3955 6.632 3.3155 7.728 3.3155 9.024C3.3155 10.368 3.3955 11.496 3.5555 12.408C3.7155 13.32 4.0515 14.056 4.5635 14.616C5.0915 15.176 5.8595 15.456 6.8675 15.456C7.8755 15.456 8.6355 15.176 9.1475 14.616C9.6755 14.056 10.0195 13.32 10.1795 12.408C10.3395 11.496 10.4195 10.368 10.4195 9.024ZM15.9545 4.824C16.0505 3.336 16.6185 2.176 17.6585 1.344C18.7145 0.511999 20.0585 0.0959988 21.6905 0.0959988C22.8105 0.0959988 23.7785 0.295999 24.5945 0.696C25.4105 1.096 26.0265 1.64 26.4425 2.328C26.8585 3.016 27.0665 3.792 27.0665 4.656C27.0665 5.648 26.8025 6.496 26.2745 7.2C25.7465 7.904 25.1145 8.376 24.3785 8.616V8.712C25.3225 9 26.0585 9.528 26.5865 10.296C27.1145 11.048 27.3785 12.016 27.3785 13.2C27.3785 14.144 27.1625 14.984 26.7305 15.72C26.2985 16.456 25.6585 17.04 24.8105 17.472C23.9625 17.888 22.9465 18.096 21.7625 18.096C20.0345 18.096 18.6105 17.656 17.4905 16.776C16.3865 15.88 15.7945 14.6 15.7145 12.936H18.3545C18.4185 13.784 18.7465 14.48 19.3385 15.024C19.9305 15.552 20.7305 15.816 21.7385 15.816C22.7145 15.816 23.4665 15.552 23.9945 15.024C24.5225 14.48 24.7865 13.784 24.7865 12.936C24.7865 11.816 24.4265 11.024 23.7065 10.56C23.0025 10.08 21.9145 9.84 20.4425 9.84H19.8185V7.584H20.4665C21.7625 7.568 22.7465 7.352 23.4185 6.936C24.1065 6.52 24.4505 5.864 24.4505 4.968C24.4505 4.2 24.2025 3.592 23.7065 3.144C23.2105 2.68 22.5065 2.448 21.5945 2.448C20.6985 2.448 20.0025 2.68 19.5065 3.144C19.0105 3.592 18.7145 4.152 18.6185 4.824H15.9545Z" fill="#2405F2"/>
</svg>
