<svg width="28" height="18" viewBox="0 0 28 18" fill="none" xmlns="http://www.w3.org/2000/svg">
<path d="M0.826719 9.024C0.826719 6.256 1.29072 4.096 2.21872 2.544C3.16272 0.975999 4.77872 0.191999 7.06672 0.191999C9.35472 0.191999 10.9627 0.975999 11.8907 2.544C12.8347 4.096 13.3067 6.256 13.3067 9.024C13.3067 11.824 12.8347 14.016 11.8907 15.6C10.9627 17.168 9.35472 17.952 7.06672 17.952C4.77872 17.952 3.16272 17.168 2.21872 15.6C1.29072 14.016 0.826719 11.824 0.826719 9.024ZM10.6187 9.024C10.6187 7.728 10.5307 6.632 10.3547 5.736C10.1947 4.84 9.85872 4.112 9.34672 3.552C8.83472 2.976 8.07472 2.688 7.06672 2.688C6.05872 2.688 5.29872 2.976 4.78672 3.552C4.27472 4.112 3.93072 4.84 3.75472 5.736C3.59472 6.632 3.51472 7.728 3.51472 9.024C3.51472 10.368 3.59472 11.496 3.75472 12.408C3.91472 13.32 4.25072 14.056 4.76272 14.616C5.29072 15.176 6.05872 15.456 7.06672 15.456C8.07472 15.456 8.83472 15.176 9.34672 14.616C9.87472 14.056 10.2187 13.32 10.3787 12.408C10.5387 11.496 10.6187 10.368 10.6187 9.024ZM17.7137 14.28C19.2497 12.952 20.4577 11.864 21.3377 11.016C22.2337 10.152 22.9777 9.256 23.5697 8.328C24.1617 7.4 24.4577 6.472 24.4577 5.544C24.4577 4.584 24.2257 3.832 23.7617 3.288C23.3137 2.744 22.6017 2.472 21.6257 2.472C20.6817 2.472 19.9457 2.776 19.4177 3.384C18.9057 3.976 18.6337 4.776 18.6017 5.784H15.9617C16.0097 3.96 16.5537 2.568 17.5937 1.608C18.6497 0.631999 19.9857 0.144 21.6017 0.144C23.3457 0.144 24.7057 0.624 25.6817 1.584C26.6737 2.544 27.1697 3.824 27.1697 5.424C27.1697 6.576 26.8737 7.688 26.2817 8.76C25.7057 9.816 25.0097 10.768 24.1937 11.616C23.3937 12.448 22.3697 13.416 21.1217 14.52L20.0417 15.48H27.6497V17.76H15.9857V15.768L17.7137 14.28Z" fill="#2405F2"/>
</svg>
