<svg width="396" height="600" viewBox="0 0 396 600" fill="none" xmlns="http://www.w3.org/2000/svg">
<path d="M54.976 528L52.416 523.552H51.024V528H49.2V516.88H53.04C53.8933 516.88 54.6133 517.029 55.2 517.328C55.7973 517.627 56.24 518.027 56.528 518.528C56.8267 519.029 56.976 519.589 56.976 520.208C56.976 520.933 56.7627 521.595 56.336 522.192C55.92 522.779 55.2747 523.179 54.4 523.392L57.152 528H54.976ZM51.024 522.096H53.04C53.7227 522.096 54.2347 521.925 54.576 521.584C54.928 521.243 55.104 520.784 55.104 520.208C55.104 519.632 54.9333 519.184 54.592 518.864C54.2507 518.533 53.7333 518.368 53.04 518.368H51.024V522.096ZM67.3894 523.376C67.3894 523.707 67.368 524.005 67.3254 524.272H60.5894C60.6427 524.976 60.904 525.541 61.3734 525.968C61.8427 526.395 62.4187 526.608 63.1014 526.608C64.0827 526.608 64.776 526.197 65.1814 525.376H67.1494C66.8827 526.187 66.3974 526.853 65.6934 527.376C65 527.888 64.136 528.144 63.1014 528.144C62.2587 528.144 61.5014 527.957 60.8294 527.584C60.168 527.2 59.6454 526.667 59.2614 525.984C58.888 525.291 58.7014 524.491 58.7014 523.584C58.7014 522.677 58.8827 521.883 59.2454 521.2C59.6187 520.507 60.136 519.973 60.7974 519.6C61.4694 519.227 62.2374 519.04 63.1014 519.04C63.9334 519.04 64.6747 519.221 65.3254 519.584C65.976 519.947 66.4827 520.459 66.8454 521.12C67.208 521.771 67.3894 522.523 67.3894 523.376ZM65.4854 522.8C65.4747 522.128 65.2347 521.589 64.7654 521.184C64.296 520.779 63.7147 520.576 63.0214 520.576C62.392 520.576 61.8534 520.779 61.4054 521.184C60.9574 521.579 60.6907 522.117 60.6054 522.8H65.4854ZM68.5764 523.552C68.5764 522.667 68.7577 521.883 69.1204 521.2C69.4937 520.517 69.995 519.989 70.6244 519.616C71.2644 519.232 71.9684 519.04 72.7364 519.04C73.4297 519.04 74.0324 519.179 74.5444 519.456C75.067 519.723 75.483 520.059 75.7924 520.464V519.184H77.6324V528H75.7924V526.688C75.483 527.104 75.0617 527.451 74.5284 527.728C73.995 528.005 73.387 528.144 72.7044 528.144C71.947 528.144 71.2537 527.952 70.6244 527.568C69.995 527.173 69.4937 526.629 69.1204 525.936C68.7577 525.232 68.5764 524.437 68.5764 523.552ZM75.7924 523.584C75.7924 522.976 75.6644 522.448 75.4084 522C75.163 521.552 74.8377 521.211 74.4324 520.976C74.027 520.741 73.5897 520.624 73.1204 520.624C72.651 520.624 72.2137 520.741 71.8084 520.976C71.403 521.2 71.0724 521.536 70.8164 521.984C70.571 522.421 70.4484 522.944 70.4484 523.552C70.4484 524.16 70.571 524.693 70.8164 525.152C71.0724 525.611 71.403 525.963 71.8084 526.208C72.2244 526.443 72.6617 526.56 73.1204 526.56C73.5897 526.56 74.027 526.443 74.4324 526.208C74.8377 525.973 75.163 525.632 75.4084 525.184C75.6644 524.725 75.7924 524.192 75.7924 523.584ZM79.4201 523.552C79.4201 522.667 79.6015 521.883 79.9641 521.2C80.3375 520.517 80.8388 519.989 81.4681 519.616C82.1081 519.232 82.8175 519.04 83.5961 519.04C84.1721 519.04 84.7375 519.168 85.2921 519.424C85.8575 519.669 86.3055 520 86.6361 520.416V516.16H88.4761V528H86.6361V526.672C86.3375 527.099 85.9215 527.451 85.3881 527.728C84.8655 528.005 84.2628 528.144 83.5801 528.144C82.8121 528.144 82.1081 527.952 81.4681 527.568C80.8388 527.173 80.3375 526.629 79.9641 525.936C79.6015 525.232 79.4201 524.437 79.4201 523.552ZM86.6361 523.584C86.6361 522.976 86.5081 522.448 86.2521 522C86.0068 521.552 85.6815 521.211 85.2761 520.976C84.8708 520.741 84.4335 520.624 83.9641 520.624C83.4948 520.624 83.0575 520.741 82.6521 520.976C82.2468 521.2 81.9161 521.536 81.6601 521.984C81.4148 522.421 81.2921 522.944 81.2921 523.552C81.2921 524.16 81.4148 524.693 81.6601 525.152C81.9161 525.611 82.2468 525.963 82.6521 526.208C83.0681 526.443 83.5055 526.56 83.9641 526.56C84.4335 526.56 84.8708 526.443 85.2761 526.208C85.6815 525.973 86.0068 525.632 86.2521 525.184C86.5081 524.725 86.6361 524.192 86.6361 523.584ZM94.4201 522.416C94.4201 521.328 94.6708 520.352 95.1721 519.488C95.6841 518.624 96.3721 517.952 97.2361 517.472C98.1108 516.981 99.0655 516.736 100.1 516.736C101.284 516.736 102.335 517.029 103.252 517.616C104.18 518.192 104.852 519.013 105.268 520.08H103.076C102.788 519.493 102.388 519.056 101.876 518.768C101.364 518.48 100.772 518.336 100.1 518.336C99.3641 518.336 98.7081 518.501 98.1321 518.832C97.5561 519.163 97.1028 519.637 96.7721 520.256C96.4521 520.875 96.2921 521.595 96.2921 522.416C96.2921 523.237 96.4521 523.957 96.7721 524.576C97.1028 525.195 97.5561 525.675 98.1321 526.016C98.7081 526.347 99.3641 526.512 100.1 526.512C100.772 526.512 101.364 526.368 101.876 526.08C102.388 525.792 102.788 525.355 103.076 524.768H105.268C104.852 525.835 104.18 526.656 103.252 527.232C102.335 527.808 101.284 528.096 100.1 528.096C99.0548 528.096 98.1001 527.856 97.2361 527.376C96.3721 526.885 95.6841 526.208 95.1721 525.344C94.6708 524.48 94.4201 523.504 94.4201 522.416ZM106.795 523.552C106.795 522.667 106.976 521.883 107.339 521.2C107.712 520.517 108.214 519.989 108.843 519.616C109.483 519.232 110.187 519.04 110.955 519.04C111.648 519.04 112.251 519.179 112.763 519.456C113.286 519.723 113.702 520.059 114.011 520.464V519.184H115.851V528H114.011V526.688C113.702 527.104 113.28 527.451 112.747 527.728C112.214 528.005 111.606 528.144 110.923 528.144C110.166 528.144 109.472 527.952 108.843 527.568C108.214 527.173 107.712 526.629 107.339 525.936C106.976 525.232 106.795 524.437 106.795 523.552ZM114.011 523.584C114.011 522.976 113.883 522.448 113.627 522C113.382 521.552 113.056 521.211 112.651 520.976C112.246 520.741 111.808 520.624 111.339 520.624C110.87 520.624 110.432 520.741 110.027 520.976C109.622 521.2 109.291 521.536 109.035 521.984C108.79 522.421 108.667 522.944 108.667 523.552C108.667 524.16 108.79 524.693 109.035 525.152C109.291 525.611 109.622 525.963 110.027 526.208C110.443 526.443 110.88 526.56 111.339 526.56C111.808 526.56 112.246 526.443 112.651 526.208C113.056 525.973 113.382 525.632 113.627 525.184C113.883 524.725 114.011 524.192 114.011 523.584ZM121.447 528.144C120.754 528.144 120.13 528.021 119.575 527.776C119.031 527.52 118.599 527.179 118.279 526.752C117.959 526.315 117.788 525.829 117.767 525.296H119.655C119.687 525.669 119.863 525.984 120.183 526.24C120.514 526.485 120.924 526.608 121.415 526.608C121.927 526.608 122.322 526.512 122.599 526.32C122.887 526.117 123.031 525.861 123.031 525.552C123.031 525.221 122.871 524.976 122.551 524.816C122.242 524.656 121.746 524.48 121.063 524.288C120.402 524.107 119.863 523.931 119.447 523.76C119.031 523.589 118.668 523.328 118.359 522.976C118.06 522.624 117.911 522.16 117.911 521.584C117.911 521.115 118.05 520.688 118.327 520.304C118.604 519.909 118.999 519.6 119.511 519.376C120.034 519.152 120.631 519.04 121.303 519.04C122.306 519.04 123.111 519.296 123.719 519.808C124.338 520.309 124.668 520.997 124.711 521.872H122.887C122.855 521.477 122.695 521.163 122.407 520.928C122.119 520.693 121.73 520.576 121.239 520.576C120.759 520.576 120.391 520.667 120.135 520.848C119.879 521.029 119.751 521.269 119.751 521.568C119.751 521.803 119.836 522 120.007 522.16C120.178 522.32 120.386 522.448 120.631 522.544C120.876 522.629 121.239 522.741 121.719 522.88C122.359 523.051 122.882 523.227 123.287 523.408C123.703 523.579 124.06 523.835 124.359 524.176C124.658 524.517 124.812 524.971 124.823 525.536C124.823 526.037 124.684 526.485 124.407 526.88C124.13 527.275 123.735 527.584 123.223 527.808C122.722 528.032 122.13 528.144 121.447 528.144ZM134.874 523.376C134.874 523.707 134.852 524.005 134.81 524.272H128.074C128.127 524.976 128.388 525.541 128.858 525.968C129.327 526.395 129.903 526.608 130.586 526.608C131.567 526.608 132.26 526.197 132.666 525.376H134.634C134.367 526.187 133.882 526.853 133.178 527.376C132.484 527.888 131.62 528.144 130.586 528.144C129.743 528.144 128.986 527.957 128.314 527.584C127.652 527.2 127.13 526.667 126.746 525.984C126.372 525.291 126.186 524.491 126.186 523.584C126.186 522.677 126.367 521.883 126.73 521.2C127.103 520.507 127.62 519.973 128.282 519.6C128.954 519.227 129.722 519.04 130.586 519.04C131.418 519.04 132.159 519.221 132.81 519.584C133.46 519.947 133.967 520.459 134.33 521.12C134.692 521.771 134.874 522.523 134.874 523.376ZM132.97 522.8C132.959 522.128 132.719 521.589 132.25 521.184C131.78 520.779 131.199 520.576 130.506 520.576C129.876 520.576 129.338 520.779 128.89 521.184C128.442 521.579 128.175 522.117 128.09 522.8H132.97ZM144.489 528.112C143.742 528.112 143.07 527.984 142.473 527.728C141.876 527.461 141.406 527.088 141.065 526.608C140.724 526.128 140.553 525.568 140.553 524.928H142.505C142.548 525.408 142.734 525.803 143.065 526.112C143.406 526.421 143.881 526.576 144.489 526.576C145.118 526.576 145.609 526.427 145.961 526.128C146.313 525.819 146.489 525.424 146.489 524.944C146.489 524.571 146.377 524.267 146.153 524.032C145.94 523.797 145.668 523.616 145.337 523.488C145.017 523.36 144.569 523.221 143.993 523.072C143.268 522.88 142.676 522.688 142.217 522.496C141.769 522.293 141.385 521.984 141.065 521.568C140.745 521.152 140.585 520.597 140.585 519.904C140.585 519.264 140.745 518.704 141.065 518.224C141.385 517.744 141.833 517.376 142.409 517.12C142.985 516.864 143.652 516.736 144.409 516.736C145.486 516.736 146.366 517.008 147.049 517.552C147.742 518.085 148.126 518.821 148.201 519.76H146.185C146.153 519.355 145.961 519.008 145.609 518.72C145.257 518.432 144.793 518.288 144.217 518.288C143.694 518.288 143.268 518.421 142.937 518.688C142.606 518.955 142.441 519.339 142.441 519.84C142.441 520.181 142.542 520.464 142.745 520.688C142.958 520.901 143.225 521.072 143.545 521.2C143.865 521.328 144.302 521.467 144.857 521.616C145.593 521.819 146.19 522.021 146.649 522.224C147.118 522.427 147.513 522.741 147.833 523.168C148.164 523.584 148.329 524.144 148.329 524.848C148.329 525.413 148.174 525.947 147.865 526.448C147.566 526.949 147.124 527.355 146.537 527.664C145.961 527.963 145.278 528.112 144.489 528.112ZM152.609 520.672V525.552C152.609 525.883 152.684 526.123 152.833 526.272C152.993 526.411 153.26 526.48 153.633 526.48H154.753V528H153.313C152.492 528 151.863 527.808 151.425 527.424C150.988 527.04 150.769 526.416 150.769 525.552V520.672H149.729V519.184H150.769V516.992H152.609V519.184H154.753V520.672H152.609ZM164.418 519.184V528H162.594V526.96C162.306 527.323 161.928 527.611 161.458 527.824C161 528.027 160.509 528.128 159.986 528.128C159.293 528.128 158.669 527.984 158.114 527.696C157.57 527.408 157.138 526.981 156.818 526.416C156.509 525.851 156.354 525.168 156.354 524.368V519.184H158.162V524.096C158.162 524.885 158.36 525.493 158.754 525.92C159.149 526.336 159.688 526.544 160.37 526.544C161.053 526.544 161.592 526.336 161.986 525.92C162.392 525.493 162.594 524.885 162.594 524.096V519.184H164.418ZM166.217 523.552C166.217 522.667 166.398 521.883 166.761 521.2C167.134 520.517 167.636 519.989 168.265 519.616C168.905 519.232 169.614 519.04 170.393 519.04C170.969 519.04 171.534 519.168 172.089 519.424C172.654 519.669 173.102 520 173.433 520.416V516.16H175.273V528H173.433V526.672C173.134 527.099 172.718 527.451 172.185 527.728C171.662 528.005 171.06 528.144 170.377 528.144C169.609 528.144 168.905 527.952 168.265 527.568C167.636 527.173 167.134 526.629 166.761 525.936C166.398 525.232 166.217 524.437 166.217 523.552ZM173.433 523.584C173.433 522.976 173.305 522.448 173.049 522C172.804 521.552 172.478 521.211 172.073 520.976C171.668 520.741 171.23 520.624 170.761 520.624C170.292 520.624 169.854 520.741 169.449 520.976C169.044 521.2 168.713 521.536 168.457 521.984C168.212 522.421 168.089 522.944 168.089 523.552C168.089 524.16 168.212 524.693 168.457 525.152C168.713 525.611 169.044 525.963 169.449 526.208C169.865 526.443 170.302 526.56 170.761 526.56C171.23 526.56 171.668 526.443 172.073 526.208C172.478 525.973 172.804 525.632 173.049 525.184C173.305 524.725 173.433 524.192 173.433 523.584ZM178.597 518.016C178.266 518.016 177.989 517.904 177.765 517.68C177.541 517.456 177.429 517.179 177.429 516.848C177.429 516.517 177.541 516.24 177.765 516.016C177.989 515.792 178.266 515.68 178.597 515.68C178.917 515.68 179.189 515.792 179.413 516.016C179.637 516.24 179.749 516.517 179.749 516.848C179.749 517.179 179.637 517.456 179.413 517.68C179.189 517.904 178.917 518.016 178.597 518.016ZM179.493 519.184V528H177.669V519.184H179.493ZM189.968 523.376C189.968 523.707 189.946 524.005 189.904 524.272H183.168C183.221 524.976 183.482 525.541 183.952 525.968C184.421 526.395 184.997 526.608 185.68 526.608C186.661 526.608 187.354 526.197 187.76 525.376H189.727C189.461 526.187 188.976 526.853 188.272 527.376C187.578 527.888 186.714 528.144 185.68 528.144C184.837 528.144 184.08 527.957 183.408 527.584C182.746 527.2 182.224 526.667 181.84 525.984C181.466 525.291 181.28 524.491 181.28 523.584C181.28 522.677 181.461 521.883 181.824 521.2C182.197 520.507 182.714 519.973 183.376 519.6C184.048 519.227 184.816 519.04 185.68 519.04C186.512 519.04 187.253 519.221 187.904 519.584C188.554 519.947 189.061 520.459 189.424 521.12C189.786 521.771 189.968 522.523 189.968 523.376ZM188.064 522.8C188.053 522.128 187.813 521.589 187.344 521.184C186.874 520.779 186.293 520.576 185.6 520.576C184.97 520.576 184.432 520.779 183.984 521.184C183.536 521.579 183.269 522.117 183.184 522.8H188.064ZM194.963 528.144C194.269 528.144 193.645 528.021 193.091 527.776C192.547 527.52 192.115 527.179 191.795 526.752C191.475 526.315 191.304 525.829 191.283 525.296H193.171C193.203 525.669 193.379 525.984 193.699 526.24C194.029 526.485 194.44 526.608 194.931 526.608C195.443 526.608 195.837 526.512 196.115 526.32C196.403 526.117 196.547 525.861 196.547 525.552C196.547 525.221 196.387 524.976 196.067 524.816C195.757 524.656 195.261 524.48 194.579 524.288C193.917 524.107 193.379 523.931 192.963 523.76C192.547 523.589 192.184 523.328 191.875 522.976C191.576 522.624 191.427 522.16 191.427 521.584C191.427 521.115 191.565 520.688 191.843 520.304C192.12 519.909 192.515 519.6 193.027 519.376C193.549 519.152 194.147 519.04 194.819 519.04C195.821 519.04 196.627 519.296 197.235 519.808C197.853 520.309 198.184 520.997 198.227 521.872H196.403C196.371 521.477 196.211 521.163 195.923 520.928C195.635 520.693 195.245 520.576 194.755 520.576C194.275 520.576 193.907 520.667 193.651 520.848C193.395 521.029 193.267 521.269 193.267 521.568C193.267 521.803 193.352 522 193.523 522.16C193.693 522.32 193.901 522.448 194.147 522.544C194.392 522.629 194.755 522.741 195.235 522.88C195.875 523.051 196.397 523.227 196.803 523.408C197.219 523.579 197.576 523.835 197.875 524.176C198.173 524.517 198.328 524.971 198.339 525.536C198.339 526.037 198.2 526.485 197.923 526.88C197.645 527.275 197.251 527.584 196.739 527.808C196.237 528.032 195.645 528.144 194.963 528.144Z" fill="#FCD980"/>
<path d="M238.53 523.53C238.823 523.237 238.823 522.763 238.53 522.47L233.757 517.697C233.464 517.404 232.99 517.404 232.697 517.697C232.404 517.99 232.404 518.464 232.697 518.757L236.939 523L232.697 527.243C232.404 527.536 232.404 528.01 232.697 528.303C232.99 528.596 233.464 528.596 233.757 528.303L238.53 523.53ZM214 523.75H238V522.25H214V523.75Z" fill="#FCD980"/>
<rect width="396" height="600" fill="url(#paint0_linear_706_952)"/>
<path d="M72.048 321.248L67.368 338H63.408L60.264 326.072L56.976 338L53.04 338.024L48.528 321.248H52.128L55.08 334.256L58.488 321.248H62.232L65.448 334.184L68.424 321.248H72.048ZM80.1459 338.216C78.8659 338.216 77.7139 337.936 76.6899 337.376C75.6659 336.8 74.8579 335.992 74.2659 334.952C73.6899 333.912 73.4019 332.712 73.4019 331.352C73.4019 329.992 73.6979 328.792 74.2899 327.752C74.8979 326.712 75.7219 325.912 76.7619 325.352C77.8019 324.776 78.9619 324.488 80.2419 324.488C81.5219 324.488 82.6819 324.776 83.7219 325.352C84.7619 325.912 85.5779 326.712 86.1699 327.752C86.7779 328.792 87.0819 329.992 87.0819 331.352C87.0819 332.712 86.7699 333.912 86.1459 334.952C85.5379 335.992 84.7059 336.8 83.6499 337.376C82.6099 337.936 81.4419 338.216 80.1459 338.216ZM80.1459 335.288C80.7539 335.288 81.3219 335.144 81.8499 334.856C82.3939 334.552 82.8259 334.104 83.1459 333.512C83.4659 332.92 83.6259 332.2 83.6259 331.352C83.6259 330.088 83.2899 329.12 82.6179 328.448C81.9619 327.76 81.1539 327.416 80.1939 327.416C79.2339 327.416 78.4259 327.76 77.7699 328.448C77.1299 329.12 76.8099 330.088 76.8099 331.352C76.8099 332.616 77.1219 333.592 77.7459 334.28C78.3859 334.952 79.1859 335.288 80.1459 335.288ZM92.9066 326.768C93.3386 326.064 93.8986 325.512 94.5866 325.112C95.2906 324.712 96.0906 324.512 96.9866 324.512V328.04H96.0986C95.0426 328.04 94.2426 328.288 93.6986 328.784C93.1706 329.28 92.9066 330.144 92.9066 331.376V338H89.5466V324.704H92.9066V326.768ZM107.122 338L102.61 332.336V338H99.2498V320.24H102.61V330.344L107.074 324.704H111.442L105.586 331.376L111.49 338H107.122ZM120.753 324.512C121.761 324.512 122.657 324.736 123.441 325.184C124.225 325.616 124.833 326.264 125.265 327.128C125.713 327.976 125.937 329 125.937 330.2V338H122.577V330.656C122.577 329.6 122.313 328.792 121.785 328.232C121.257 327.656 120.537 327.368 119.625 327.368C118.697 327.368 117.961 327.656 117.417 328.232C116.889 328.792 116.625 329.6 116.625 330.656V338H113.265V320.24H116.625V326.36C117.057 325.784 117.633 325.336 118.353 325.016C119.073 324.68 119.873 324.512 120.753 324.512ZM141.685 324.704V338H138.301V336.32C137.869 336.896 137.301 337.352 136.597 337.688C135.909 338.008 135.157 338.168 134.341 338.168C133.301 338.168 132.381 337.952 131.581 337.52C130.781 337.072 130.149 336.424 129.685 335.576C129.237 334.712 129.013 333.688 129.013 332.504V324.704H132.373V332.024C132.373 333.08 132.637 333.896 133.165 334.472C133.693 335.032 134.413 335.312 135.325 335.312C136.253 335.312 136.981 335.032 137.509 334.472C138.037 333.896 138.301 333.08 138.301 332.024V324.704H141.685ZM148.36 326.648C148.792 326.008 149.384 325.488 150.136 325.088C150.904 324.688 151.776 324.488 152.752 324.488C153.888 324.488 154.912 324.768 155.824 325.328C156.752 325.888 157.48 326.688 158.008 327.728C158.552 328.752 158.824 329.944 158.824 331.304C158.824 332.664 158.552 333.872 158.008 334.928C157.48 335.968 156.752 336.776 155.824 337.352C154.912 337.928 153.888 338.216 152.752 338.216C151.76 338.216 150.888 338.024 150.136 337.64C149.4 337.24 148.808 336.728 148.36 336.104V338H145V320.24H148.36V326.648ZM155.392 331.304C155.392 330.504 155.224 329.816 154.888 329.24C154.568 328.648 154.136 328.2 153.592 327.896C153.064 327.592 152.488 327.44 151.864 327.44C151.256 327.44 150.68 327.6 150.136 327.92C149.608 328.224 149.176 328.672 148.84 329.264C148.52 329.856 148.36 330.552 148.36 331.352C148.36 332.152 148.52 332.848 148.84 333.44C149.176 334.032 149.608 334.488 150.136 334.808C150.68 335.112 151.256 335.264 151.864 335.264C152.488 335.264 153.064 335.104 153.592 334.784C154.136 334.464 154.568 334.008 154.888 333.416C155.224 332.824 155.392 332.12 155.392 331.304ZM172.888 338.216C171.608 338.216 170.456 337.936 169.432 337.376C168.408 336.8 167.6 335.992 167.008 334.952C166.432 333.912 166.144 332.712 166.144 331.352C166.144 329.992 166.44 328.792 167.032 327.752C167.64 326.712 168.464 325.912 169.504 325.352C170.544 324.776 171.704 324.488 172.984 324.488C174.264 324.488 175.424 324.776 176.464 325.352C177.504 325.912 178.32 326.712 178.912 327.752C179.52 328.792 179.824 329.992 179.824 331.352C179.824 332.712 179.512 333.912 178.888 334.952C178.28 335.992 177.448 336.8 176.392 337.376C175.352 337.936 174.184 338.216 172.888 338.216ZM172.888 335.288C173.496 335.288 174.064 335.144 174.592 334.856C175.136 334.552 175.568 334.104 175.888 333.512C176.208 332.92 176.368 332.2 176.368 331.352C176.368 330.088 176.032 329.12 175.36 328.448C174.704 327.76 173.896 327.416 172.936 327.416C171.976 327.416 171.168 327.76 170.512 328.448C169.872 329.12 169.552 330.088 169.552 331.352C169.552 332.616 169.864 333.592 170.488 334.28C171.128 334.952 171.928 335.288 172.888 335.288ZM188.385 327.464H186.057V338H182.649V327.464H181.137V324.704H182.649V324.032C182.649 322.4 183.113 321.2 184.041 320.432C184.969 319.664 186.369 319.304 188.241 319.352V322.184C187.425 322.168 186.857 322.304 186.537 322.592C186.217 322.88 186.057 323.4 186.057 324.152V324.704H188.385V327.464ZM196.658 327.464H194.33V338H190.922V327.464H189.41V324.704H190.922V324.032C190.922 322.4 191.386 321.2 192.314 320.432C193.242 319.664 194.642 319.304 196.514 319.352V322.184C195.698 322.168 195.13 322.304 194.81 322.592C194.49 322.88 194.33 323.4 194.33 324.152V324.704H196.658V327.464ZM200.54 323.12C199.948 323.12 199.452 322.936 199.052 322.568C198.668 322.184 198.476 321.712 198.476 321.152C198.476 320.592 198.668 320.128 199.052 319.76C199.452 319.376 199.948 319.184 200.54 319.184C201.132 319.184 201.62 319.376 202.004 319.76C202.404 320.128 202.604 320.592 202.604 321.152C202.604 321.712 202.404 322.184 202.004 322.568C201.62 322.936 201.132 323.12 200.54 323.12ZM202.196 324.704V338H198.836V324.704H202.196ZM204.651 331.352C204.651 329.976 204.931 328.776 205.491 327.752C206.051 326.712 206.827 325.912 207.819 325.352C208.811 324.776 209.947 324.488 211.227 324.488C212.875 324.488 214.235 324.904 215.307 325.736C216.395 326.552 217.123 327.704 217.491 329.192H213.867C213.675 328.616 213.347 328.168 212.883 327.848C212.435 327.512 211.875 327.344 211.203 327.344C210.243 327.344 209.483 327.696 208.923 328.4C208.363 329.088 208.083 330.072 208.083 331.352C208.083 332.616 208.363 333.6 208.923 334.304C209.483 334.992 210.243 335.336 211.203 335.336C212.563 335.336 213.451 334.728 213.867 333.512H217.491C217.123 334.952 216.395 336.096 215.307 336.944C214.219 337.792 212.859 338.216 211.227 338.216C209.947 338.216 208.811 337.936 207.819 337.376C206.827 336.8 206.051 336 205.491 334.976C204.931 333.936 204.651 332.728 204.651 331.352ZM232.313 331.064C232.313 331.544 232.281 331.976 232.217 332.36H222.497C222.577 333.32 222.913 334.072 223.505 334.616C224.097 335.16 224.825 335.432 225.689 335.432C226.937 335.432 227.825 334.896 228.353 333.824H231.977C231.593 335.104 230.857 336.16 229.769 336.992C228.681 337.808 227.345 338.216 225.761 338.216C224.481 338.216 223.329 337.936 222.305 337.376C221.297 336.8 220.505 335.992 219.929 334.952C219.369 333.912 219.089 332.712 219.089 331.352C219.089 329.976 219.369 328.768 219.929 327.728C220.489 326.688 221.273 325.888 222.281 325.328C223.289 324.768 224.449 324.488 225.761 324.488C227.025 324.488 228.153 324.76 229.145 325.304C230.153 325.848 230.929 326.624 231.473 327.632C232.033 328.624 232.313 329.768 232.313 331.064ZM228.833 330.104C228.817 329.24 228.505 328.552 227.897 328.04C227.289 327.512 226.545 327.248 225.665 327.248C224.833 327.248 224.129 327.504 223.553 328.016C222.993 328.512 222.649 329.208 222.521 330.104H228.833ZM262.876 321.248L258.196 338H254.236L251.092 326.072L247.804 338L243.868 338.024L239.356 321.248H242.956L245.908 334.256L249.316 321.248H253.06L256.276 334.184L259.252 321.248H262.876ZM277.43 331.064C277.43 331.544 277.398 331.976 277.334 332.36H267.614C267.694 333.32 268.03 334.072 268.622 334.616C269.214 335.16 269.942 335.432 270.806 335.432C272.054 335.432 272.942 334.896 273.47 333.824H277.094C276.71 335.104 275.974 336.16 274.886 336.992C273.798 337.808 272.462 338.216 270.878 338.216C269.598 338.216 268.446 337.936 267.422 337.376C266.414 336.8 265.622 335.992 265.046 334.952C264.486 333.912 264.206 332.712 264.206 331.352C264.206 329.976 264.486 328.768 265.046 327.728C265.606 326.688 266.39 325.888 267.398 325.328C268.406 324.768 269.566 324.488 270.878 324.488C272.142 324.488 273.27 324.76 274.262 325.304C275.27 325.848 276.046 326.624 276.59 327.632C277.15 328.624 277.43 329.768 277.43 331.064ZM273.95 330.104C273.934 329.24 273.622 328.552 273.014 328.04C272.406 327.512 271.662 327.248 270.782 327.248C269.95 327.248 269.246 327.504 268.67 328.016C268.11 328.512 267.766 329.208 267.638 330.104H273.95ZM283.243 326.648C283.675 326.008 284.267 325.488 285.019 325.088C285.787 324.688 286.659 324.488 287.635 324.488C288.771 324.488 289.795 324.768 290.707 325.328C291.635 325.888 292.363 326.688 292.891 327.728C293.435 328.752 293.707 329.944 293.707 331.304C293.707 332.664 293.435 333.872 292.891 334.928C292.363 335.968 291.635 336.776 290.707 337.352C289.795 337.928 288.771 338.216 287.635 338.216C286.643 338.216 285.771 338.024 285.019 337.64C284.283 337.24 283.691 336.728 283.243 336.104V338H279.883V320.24H283.243V326.648ZM290.275 331.304C290.275 330.504 290.107 329.816 289.771 329.24C289.451 328.648 289.019 328.2 288.475 327.896C287.947 327.592 287.371 327.44 286.747 327.44C286.139 327.44 285.563 327.6 285.019 327.92C284.491 328.224 284.059 328.672 283.723 329.264C283.403 329.856 283.243 330.552 283.243 331.352C283.243 332.152 283.403 332.848 283.723 333.44C284.059 334.032 284.491 334.488 285.019 334.808C285.563 335.112 286.139 335.264 286.747 335.264C287.371 335.264 287.947 335.104 288.475 334.784C289.019 334.464 289.451 334.008 289.771 333.416C290.107 332.824 290.275 332.12 290.275 331.304ZM302.244 327.464H299.916V338H296.508V327.464H294.996V324.704H296.508V324.032C296.508 322.4 296.972 321.2 297.9 320.432C298.828 319.664 300.228 319.304 302.1 319.352V322.184C301.284 322.168 300.716 322.304 300.396 322.592C300.076 322.88 299.916 323.4 299.916 324.152V324.704H302.244V327.464ZM307.782 320.24V338H304.422V320.24H307.782ZM317.005 338.216C315.725 338.216 314.573 337.936 313.549 337.376C312.525 336.8 311.717 335.992 311.125 334.952C310.549 333.912 310.261 332.712 310.261 331.352C310.261 329.992 310.557 328.792 311.149 327.752C311.757 326.712 312.581 325.912 313.621 325.352C314.661 324.776 315.821 324.488 317.101 324.488C318.381 324.488 319.541 324.776 320.581 325.352C321.621 325.912 322.437 326.712 323.029 327.752C323.637 328.792 323.941 329.992 323.941 331.352C323.941 332.712 323.629 333.912 323.005 334.952C322.397 335.992 321.565 336.8 320.509 337.376C319.469 337.936 318.301 338.216 317.005 338.216ZM317.005 335.288C317.613 335.288 318.181 335.144 318.709 334.856C319.253 334.552 319.685 334.104 320.005 333.512C320.325 332.92 320.485 332.2 320.485 331.352C320.485 330.088 320.149 329.12 319.477 328.448C318.821 327.76 318.013 327.416 317.053 327.416C316.093 327.416 315.285 327.76 314.629 328.448C313.989 329.12 313.669 330.088 313.669 331.352C313.669 332.616 313.981 333.592 314.605 334.28C315.245 334.952 316.045 335.288 317.005 335.288ZM344.838 324.704L340.95 338H337.326L334.902 328.712L332.478 338H328.83L324.918 324.704H328.326L330.678 334.832L333.222 324.704H336.774L339.27 334.808L341.622 324.704H344.838ZM72.048 357.248L67.368 374H63.408L60.264 362.072L56.976 374L53.04 374.024L48.528 357.248H52.128L55.08 370.256L58.488 357.248H62.232L65.448 370.184L68.424 357.248H72.048ZM86.6019 367.064C86.6019 367.544 86.5699 367.976 86.5059 368.36H76.7859C76.8659 369.32 77.2019 370.072 77.7939 370.616C78.3859 371.16 79.1139 371.432 79.9779 371.432C81.2259 371.432 82.1139 370.896 82.6419 369.824H86.2659C85.8819 371.104 85.1459 372.16 84.0579 372.992C82.9699 373.808 81.6339 374.216 80.0499 374.216C78.7699 374.216 77.6179 373.936 76.5939 373.376C75.5859 372.8 74.7939 371.992 74.2179 370.952C73.6579 369.912 73.3779 368.712 73.3779 367.352C73.3779 365.976 73.6579 364.768 74.2179 363.728C74.7779 362.688 75.5619 361.888 76.5699 361.328C77.5779 360.768 78.7379 360.488 80.0499 360.488C81.3139 360.488 82.4419 360.76 83.4339 361.304C84.4419 361.848 85.2179 362.624 85.7619 363.632C86.3219 364.624 86.6019 365.768 86.6019 367.064ZM83.1219 366.104C83.1059 365.24 82.7939 364.552 82.1859 364.04C81.5779 363.512 80.8339 363.248 79.9539 363.248C79.1219 363.248 78.4179 363.504 77.8419 364.016C77.2819 364.512 76.9379 365.208 76.8099 366.104H83.1219ZM92.4144 362.648C92.8464 362.008 93.4384 361.488 94.1904 361.088C94.9584 360.688 95.8304 360.488 96.8064 360.488C97.9424 360.488 98.9664 360.768 99.8784 361.328C100.806 361.888 101.534 362.688 102.062 363.728C102.606 364.752 102.878 365.944 102.878 367.304C102.878 368.664 102.606 369.872 102.062 370.928C101.534 371.968 100.806 372.776 99.8784 373.352C98.9664 373.928 97.9424 374.216 96.8064 374.216C95.8144 374.216 94.9424 374.024 94.1904 373.64C93.4544 373.24 92.8624 372.728 92.4144 372.104V374H89.0544V356.24H92.4144V362.648ZM99.4464 367.304C99.4464 366.504 99.2784 365.816 98.9424 365.24C98.6224 364.648 98.1904 364.2 97.6464 363.896C97.1184 363.592 96.5424 363.44 95.9184 363.44C95.3104 363.44 94.7344 363.6 94.1904 363.92C93.6624 364.224 93.2304 364.672 92.8944 365.264C92.5744 365.856 92.4144 366.552 92.4144 367.352C92.4144 368.152 92.5744 368.848 92.8944 369.44C93.2304 370.032 93.6624 370.488 94.1904 370.808C94.7344 371.112 95.3104 371.264 95.9184 371.264C96.5424 371.264 97.1184 371.104 97.6464 370.784C98.1904 370.464 98.6224 370.008 98.9424 369.416C99.2784 368.824 99.4464 368.12 99.4464 367.304ZM111.416 363.464H109.088V374H105.68V363.464H104.168V360.704H105.68V360.032C105.68 358.4 106.144 357.2 107.072 356.432C108 355.664 109.4 355.304 111.272 355.352V358.184C110.456 358.168 109.888 358.304 109.568 358.592C109.248 358.88 109.088 359.4 109.088 360.152V360.704H111.416V363.464ZM116.954 356.24V374H113.594V356.24H116.954ZM126.177 374.216C124.897 374.216 123.745 373.936 122.721 373.376C121.697 372.8 120.889 371.992 120.297 370.952C119.721 369.912 119.433 368.712 119.433 367.352C119.433 365.992 119.729 364.792 120.321 363.752C120.929 362.712 121.753 361.912 122.793 361.352C123.833 360.776 124.993 360.488 126.273 360.488C127.553 360.488 128.713 360.776 129.753 361.352C130.793 361.912 131.609 362.712 132.201 363.752C132.809 364.792 133.113 365.992 133.113 367.352C133.113 368.712 132.801 369.912 132.177 370.952C131.569 371.992 130.737 372.8 129.681 373.376C128.641 373.936 127.473 374.216 126.177 374.216ZM126.177 371.288C126.785 371.288 127.353 371.144 127.881 370.856C128.425 370.552 128.857 370.104 129.177 369.512C129.497 368.92 129.657 368.2 129.657 367.352C129.657 366.088 129.321 365.12 128.649 364.448C127.993 363.76 127.185 363.416 126.225 363.416C125.265 363.416 124.457 363.76 123.801 364.448C123.161 365.12 122.841 366.088 122.841 367.352C122.841 368.616 123.153 369.592 123.777 370.28C124.417 370.952 125.217 371.288 126.177 371.288ZM154.01 360.704L150.122 374H146.498L144.074 364.712L141.65 374H138.002L134.09 360.704H137.498L139.85 370.832L142.394 360.704H145.946L148.442 370.808L150.794 360.704H154.01ZM167.403 357.248C169.163 357.248 170.707 357.592 172.035 358.28C173.379 358.968 174.411 359.952 175.131 361.232C175.867 362.496 176.235 363.968 176.235 365.648C176.235 367.328 175.867 368.8 175.131 370.064C174.411 371.312 173.379 372.28 172.035 372.968C170.707 373.656 169.163 374 167.403 374H161.547V357.248H167.403ZM167.283 371.144C169.043 371.144 170.403 370.664 171.363 369.704C172.323 368.744 172.803 367.392 172.803 365.648C172.803 363.904 172.323 362.544 171.363 361.568C170.403 360.576 169.043 360.08 167.283 360.08H164.907V371.144H167.283ZM191.11 367.064C191.11 367.544 191.078 367.976 191.014 368.36H181.294C181.374 369.32 181.71 370.072 182.302 370.616C182.894 371.16 183.622 371.432 184.486 371.432C185.734 371.432 186.622 370.896 187.15 369.824H190.774C190.39 371.104 189.654 372.16 188.566 372.992C187.478 373.808 186.142 374.216 184.558 374.216C183.278 374.216 182.126 373.936 181.102 373.376C180.094 372.8 179.302 371.992 178.726 370.952C178.166 369.912 177.886 368.712 177.886 367.352C177.886 365.976 178.166 364.768 178.726 363.728C179.286 362.688 180.07 361.888 181.078 361.328C182.086 360.768 183.246 360.488 184.558 360.488C185.822 360.488 186.95 360.76 187.942 361.304C188.95 361.848 189.726 362.624 190.27 363.632C190.83 364.624 191.11 365.768 191.11 367.064ZM187.63 366.104C187.614 365.24 187.302 364.552 186.694 364.04C186.086 363.512 185.342 363.248 184.462 363.248C183.63 363.248 182.926 363.504 182.35 364.016C181.79 364.512 181.446 365.208 181.318 366.104H187.63ZM198.65 374.216C197.562 374.216 196.586 374.024 195.722 373.64C194.858 373.24 194.17 372.704 193.658 372.032C193.162 371.36 192.89 370.616 192.842 369.8H196.226C196.29 370.312 196.538 370.736 196.97 371.072C197.418 371.408 197.97 371.576 198.626 371.576C199.266 371.576 199.762 371.448 200.114 371.192C200.482 370.936 200.666 370.608 200.666 370.208C200.666 369.776 200.442 369.456 199.994 369.248C199.562 369.024 198.866 368.784 197.906 368.528C196.914 368.288 196.098 368.04 195.458 367.784C194.834 367.528 194.29 367.136 193.826 366.608C193.378 366.08 193.154 365.368 193.154 364.472C193.154 363.736 193.362 363.064 193.778 362.456C194.21 361.848 194.818 361.368 195.602 361.016C196.402 360.664 197.338 360.488 198.41 360.488C199.994 360.488 201.258 360.888 202.202 361.688C203.146 362.472 203.666 363.536 203.762 364.88H200.546C200.498 364.352 200.274 363.936 199.874 363.632C199.49 363.312 198.97 363.152 198.314 363.152C197.706 363.152 197.234 363.264 196.898 363.488C196.578 363.712 196.418 364.024 196.418 364.424C196.418 364.872 196.642 365.216 197.09 365.456C197.538 365.68 198.234 365.912 199.178 366.152C200.138 366.392 200.93 366.64 201.554 366.896C202.178 367.152 202.714 367.552 203.162 368.096C203.626 368.624 203.866 369.328 203.882 370.208C203.882 370.976 203.666 371.664 203.234 372.272C202.818 372.88 202.21 373.36 201.41 373.712C200.626 374.048 199.706 374.216 198.65 374.216ZM208.344 359.12C207.752 359.12 207.256 358.936 206.856 358.568C206.472 358.184 206.28 357.712 206.28 357.152C206.28 356.592 206.472 356.128 206.856 355.76C207.256 355.376 207.752 355.184 208.344 355.184C208.936 355.184 209.424 355.376 209.808 355.76C210.208 356.128 210.408 356.592 210.408 357.152C210.408 357.712 210.208 358.184 209.808 358.568C209.424 358.936 208.936 359.12 208.344 359.12ZM210 360.704V374H206.64V360.704H210ZM218.528 360.488C219.52 360.488 220.392 360.688 221.144 361.088C221.896 361.472 222.488 361.976 222.92 362.6V360.704H226.304V374.096C226.304 375.328 226.056 376.424 225.56 377.384C225.064 378.36 224.32 379.128 223.328 379.688C222.336 380.264 221.136 380.552 219.728 380.552C217.84 380.552 216.288 380.112 215.072 379.232C213.872 378.352 213.192 377.152 213.032 375.632H216.368C216.544 376.24 216.92 376.72 217.496 377.072C218.088 377.44 218.8 377.624 219.632 377.624C220.608 377.624 221.4 377.328 222.008 376.736C222.616 376.16 222.92 375.28 222.92 374.096V372.032C222.488 372.656 221.888 373.176 221.12 373.592C220.368 374.008 219.504 374.216 218.528 374.216C217.408 374.216 216.384 373.928 215.456 373.352C214.528 372.776 213.792 371.968 213.248 370.928C212.72 369.872 212.456 368.664 212.456 367.304C212.456 365.96 212.72 364.768 213.248 363.728C213.792 362.688 214.52 361.888 215.432 361.328C216.36 360.768 217.392 360.488 218.528 360.488ZM222.92 367.352C222.92 366.536 222.76 365.84 222.44 365.264C222.12 364.672 221.688 364.224 221.144 363.92C220.6 363.6 220.016 363.44 219.392 363.44C218.768 363.44 218.192 363.592 217.664 363.896C217.136 364.2 216.704 364.648 216.368 365.24C216.048 365.816 215.888 366.504 215.888 367.304C215.888 368.104 216.048 368.808 216.368 369.416C216.704 370.008 217.136 370.464 217.664 370.784C218.208 371.104 218.784 371.264 219.392 371.264C220.016 371.264 220.6 371.112 221.144 370.808C221.688 370.488 222.12 370.04 222.44 369.464C222.76 368.872 222.92 368.168 222.92 367.352ZM236.954 360.512C238.538 360.512 239.818 361.016 240.794 362.024C241.77 363.016 242.258 364.408 242.258 366.2V374H238.898V366.656C238.898 365.6 238.634 364.792 238.106 364.232C237.578 363.656 236.858 363.368 235.946 363.368C235.018 363.368 234.282 363.656 233.738 364.232C233.21 364.792 232.946 365.6 232.946 366.656V374H229.586V360.704H232.946V362.36C233.394 361.784 233.962 361.336 234.65 361.016C235.354 360.68 236.122 360.512 236.954 360.512Z" fill="white"/>
<path opacity="0.8" d="M51.024 410.352V413.616H54.864V415.104H51.024V418.512H55.344V420H49.2V408.864H55.344V410.352H51.024ZM65.5746 411.184V420H63.7506V418.96C63.4626 419.323 63.084 419.611 62.6146 419.824C62.156 420.027 61.6653 420.128 61.1426 420.128C60.4493 420.128 59.8253 419.984 59.2706 419.696C58.7266 419.408 58.2946 418.981 57.9746 418.416C57.6653 417.851 57.5106 417.168 57.5106 416.368V411.184H59.3186V416.096C59.3186 416.885 59.516 417.493 59.9106 417.92C60.3053 418.336 60.844 418.544 61.5266 418.544C62.2093 418.544 62.748 418.336 63.1426 417.92C63.548 417.493 63.7506 416.885 63.7506 416.096V411.184H65.5746ZM68.9093 410.016C68.5786 410.016 68.3013 409.904 68.0773 409.68C67.8533 409.456 67.7413 409.179 67.7413 408.848C67.7413 408.517 67.8533 408.24 68.0773 408.016C68.3013 407.792 68.5786 407.68 68.9093 407.68C69.2293 407.68 69.5013 407.792 69.7253 408.016C69.9493 408.24 70.0613 408.517 70.0613 408.848C70.0613 409.179 69.9493 409.456 69.7253 409.68C69.5013 409.904 69.2293 410.016 68.9093 410.016ZM69.8053 411.184V420H67.9813V411.184H69.8053ZM75.4 420.144C74.7067 420.144 74.0827 420.021 73.528 419.776C72.984 419.52 72.552 419.179 72.232 418.752C71.912 418.315 71.7413 417.829 71.72 417.296H73.608C73.64 417.669 73.816 417.984 74.136 418.24C74.4667 418.485 74.8773 418.608 75.368 418.608C75.88 418.608 76.2747 418.512 76.552 418.32C76.84 418.117 76.984 417.861 76.984 417.552C76.984 417.221 76.824 416.976 76.504 416.816C76.1947 416.656 75.6987 416.48 75.016 416.288C74.3547 416.107 73.816 415.931 73.4 415.76C72.984 415.589 72.6213 415.328 72.312 414.976C72.0133 414.624 71.864 414.16 71.864 413.584C71.864 413.115 72.0027 412.688 72.28 412.304C72.5573 411.909 72.952 411.6 73.464 411.376C73.9867 411.152 74.584 411.04 75.256 411.04C76.2587 411.04 77.064 411.296 77.672 411.808C78.2907 412.309 78.6213 412.997 78.664 413.872H76.84C76.808 413.477 76.648 413.163 76.36 412.928C76.072 412.693 75.6827 412.576 75.192 412.576C74.712 412.576 74.344 412.667 74.088 412.848C73.832 413.029 73.704 413.269 73.704 413.568C73.704 413.803 73.7893 414 73.96 414.16C74.1307 414.32 74.3387 414.448 74.584 414.544C74.8293 414.629 75.192 414.741 75.672 414.88C76.312 415.051 76.8347 415.227 77.24 415.408C77.656 415.579 78.0133 415.835 78.312 416.176C78.6107 416.517 78.7653 416.971 78.776 417.536C78.776 418.037 78.6373 418.485 78.36 418.88C78.0827 419.275 77.688 419.584 77.176 419.808C76.6747 420.032 76.0827 420.144 75.4 420.144ZM91.4189 411.04C92.1122 411.04 92.7309 411.184 93.2749 411.472C93.8295 411.76 94.2615 412.187 94.5709 412.752C94.8909 413.317 95.0509 414 95.0509 414.8V420H93.2429V415.072C93.2429 414.283 93.0455 413.68 92.6509 413.264C92.2562 412.837 91.7175 412.624 91.0349 412.624C90.3522 412.624 89.8082 412.837 89.4029 413.264C89.0082 413.68 88.8109 414.283 88.8109 415.072V420H87.0029V415.072C87.0029 414.283 86.8055 413.68 86.4109 413.264C86.0162 412.837 85.4775 412.624 84.7949 412.624C84.1122 412.624 83.5682 412.837 83.1629 413.264C82.7682 413.68 82.5709 414.283 82.5709 415.072V420H80.7469V411.184H82.5709V412.192C82.8695 411.829 83.2482 411.547 83.7069 411.344C84.1655 411.141 84.6562 411.04 85.1789 411.04C85.8829 411.04 86.5122 411.189 87.0669 411.488C87.6215 411.787 88.0482 412.219 88.3469 412.784C88.6135 412.251 89.0295 411.829 89.5949 411.52C90.1602 411.2 90.7682 411.04 91.4189 411.04ZM101.196 420.144C100.364 420.144 99.6119 419.957 98.9399 419.584C98.2679 419.2 97.7399 418.667 97.3559 417.984C96.9719 417.291 96.7799 416.491 96.7799 415.584C96.7799 414.688 96.9772 413.893 97.3719 413.2C97.7665 412.507 98.3052 411.973 98.9879 411.6C99.6705 411.227 100.433 411.04 101.276 411.04C102.119 411.04 102.881 411.227 103.564 411.6C104.247 411.973 104.785 412.507 105.18 413.2C105.575 413.893 105.772 414.688 105.772 415.584C105.772 416.48 105.569 417.275 105.164 417.968C104.759 418.661 104.204 419.2 103.5 419.584C102.807 419.957 102.039 420.144 101.196 420.144ZM101.196 418.56C101.665 418.56 102.103 418.448 102.508 418.224C102.924 418 103.26 417.664 103.516 417.216C103.772 416.768 103.9 416.224 103.9 415.584C103.9 414.944 103.777 414.405 103.532 413.968C103.287 413.52 102.961 413.184 102.556 412.96C102.151 412.736 101.713 412.624 101.244 412.624C100.775 412.624 100.337 412.736 99.9319 412.96C99.5372 413.184 99.2225 413.52 98.9879 413.968C98.7532 414.405 98.6359 414.944 98.6359 415.584C98.6359 416.533 98.8759 417.269 99.3559 417.792C99.8465 418.304 100.46 418.56 101.196 418.56ZM106.967 415.552C106.967 414.667 107.148 413.883 107.511 413.2C107.884 412.517 108.386 411.989 109.015 411.616C109.655 411.232 110.364 411.04 111.143 411.04C111.719 411.04 112.284 411.168 112.839 411.424C113.404 411.669 113.852 412 114.183 412.416V408.16H116.023V420H114.183V418.672C113.884 419.099 113.468 419.451 112.935 419.728C112.412 420.005 111.81 420.144 111.127 420.144C110.359 420.144 109.655 419.952 109.015 419.568C108.386 419.173 107.884 418.629 107.511 417.936C107.148 417.232 106.967 416.437 106.967 415.552ZM114.183 415.584C114.183 414.976 114.055 414.448 113.799 414C113.554 413.552 113.228 413.211 112.823 412.976C112.418 412.741 111.98 412.624 111.511 412.624C111.042 412.624 110.604 412.741 110.199 412.976C109.794 413.2 109.463 413.536 109.207 413.984C108.962 414.421 108.839 414.944 108.839 415.552C108.839 416.16 108.962 416.693 109.207 417.152C109.463 417.611 109.794 417.963 110.199 418.208C110.615 418.443 111.052 418.56 111.511 418.56C111.98 418.56 112.418 418.443 112.823 418.208C113.228 417.973 113.554 417.632 113.799 417.184C114.055 416.725 114.183 416.192 114.183 415.584ZM126.271 412.672H124.639V420H122.799V412.672H121.759V411.184H122.799V410.56C122.799 409.547 123.066 408.811 123.599 408.352C124.143 407.883 124.991 407.648 126.143 407.648V409.168C125.588 409.168 125.199 409.275 124.975 409.488C124.751 409.691 124.639 410.048 124.639 410.56V411.184H126.271V412.672ZM127.28 415.552C127.28 414.667 127.461 413.883 127.824 413.2C128.197 412.517 128.698 411.989 129.328 411.616C129.968 411.232 130.672 411.04 131.44 411.04C132.133 411.04 132.736 411.179 133.248 411.456C133.77 411.723 134.186 412.059 134.496 412.464V411.184H136.336V420H134.496V418.688C134.186 419.104 133.765 419.451 133.232 419.728C132.698 420.005 132.09 420.144 131.408 420.144C130.65 420.144 129.957 419.952 129.328 419.568C128.698 419.173 128.197 418.629 127.824 417.936C127.461 417.232 127.28 416.437 127.28 415.552ZM134.496 415.584C134.496 414.976 134.368 414.448 134.112 414C133.866 413.552 133.541 413.211 133.136 412.976C132.73 412.741 132.293 412.624 131.824 412.624C131.354 412.624 130.917 412.741 130.512 412.976C130.106 413.2 129.776 413.536 129.52 413.984C129.274 414.421 129.152 414.944 129.152 415.552C129.152 416.16 129.274 416.693 129.52 417.152C129.776 417.611 130.106 417.963 130.512 418.208C130.928 418.443 131.365 418.56 131.824 418.56C132.293 418.56 132.73 418.443 133.136 418.208C133.541 417.973 133.866 417.632 134.112 417.184C134.368 416.725 134.496 416.192 134.496 415.584ZM146.715 411.184V420H144.891V418.96C144.603 419.323 144.225 419.611 143.755 419.824C143.297 420.027 142.806 420.128 142.283 420.128C141.59 420.128 140.966 419.984 140.411 419.696C139.867 419.408 139.435 418.981 139.115 418.416C138.806 417.851 138.651 417.168 138.651 416.368V411.184H140.459V416.096C140.459 416.885 140.657 417.493 141.051 417.92C141.446 418.336 141.985 418.544 142.667 418.544C143.35 418.544 143.889 418.336 144.283 417.92C144.689 417.493 144.891 416.885 144.891 416.096V411.184H146.715ZM148.514 415.584C148.514 414.677 148.695 413.883 149.058 413.2C149.431 412.507 149.943 411.973 150.594 411.6C151.245 411.227 151.991 411.04 152.834 411.04C153.901 411.04 154.781 411.296 155.474 411.808C156.178 412.309 156.653 413.029 156.898 413.968H154.93C154.77 413.531 154.514 413.189 154.162 412.944C153.81 412.699 153.367 412.576 152.834 412.576C152.087 412.576 151.49 412.843 151.042 413.376C150.605 413.899 150.386 414.635 150.386 415.584C150.386 416.533 150.605 417.275 151.042 417.808C151.49 418.341 152.087 418.608 152.834 418.608C153.89 418.608 154.589 418.144 154.93 417.216H156.898C156.642 418.112 156.162 418.827 155.458 419.36C154.754 419.883 153.879 420.144 152.834 420.144C151.991 420.144 151.245 419.957 150.594 419.584C149.943 419.2 149.431 418.667 149.058 417.984C148.695 417.291 148.514 416.491 148.514 415.584ZM159.644 410.016C159.313 410.016 159.036 409.904 158.812 409.68C158.588 409.456 158.476 409.179 158.476 408.848C158.476 408.517 158.588 408.24 158.812 408.016C159.036 407.792 159.313 407.68 159.644 407.68C159.964 407.68 160.236 407.792 160.46 408.016C160.684 408.24 160.796 408.517 160.796 408.848C160.796 409.179 160.684 409.456 160.46 409.68C160.236 409.904 159.964 410.016 159.644 410.016ZM160.54 411.184V420H158.716V411.184H160.54ZM164.758 412.496C165.068 412.069 165.489 411.723 166.022 411.456C166.566 411.179 167.169 411.04 167.83 411.04C168.609 411.04 169.313 411.227 169.942 411.6C170.572 411.973 171.068 412.507 171.43 413.2C171.793 413.883 171.974 414.667 171.974 415.552C171.974 416.437 171.793 417.232 171.43 417.936C171.068 418.629 170.566 419.173 169.926 419.568C169.297 419.952 168.598 420.144 167.83 420.144C167.148 420.144 166.54 420.011 166.006 419.744C165.484 419.477 165.068 419.136 164.758 418.72V420H162.934V408.16H164.758V412.496ZM170.118 415.552C170.118 414.944 169.99 414.421 169.734 413.984C169.489 413.536 169.158 413.2 168.742 412.976C168.337 412.741 167.9 412.624 167.43 412.624C166.972 412.624 166.534 412.741 166.118 412.976C165.713 413.211 165.382 413.552 165.126 414C164.881 414.448 164.758 414.976 164.758 415.584C164.758 416.192 164.881 416.725 165.126 417.184C165.382 417.632 165.713 417.973 166.118 418.208C166.534 418.443 166.972 418.56 167.43 418.56C167.9 418.56 168.337 418.443 168.742 418.208C169.158 417.963 169.489 417.611 169.734 417.152C169.99 416.693 170.118 416.16 170.118 415.552ZM181.762 411.184V420H179.938V418.96C179.65 419.323 179.271 419.611 178.802 419.824C178.343 420.027 177.853 420.128 177.33 420.128C176.637 420.128 176.013 419.984 175.458 419.696C174.914 419.408 174.482 418.981 174.162 418.416C173.853 417.851 173.698 417.168 173.698 416.368V411.184H175.506V416.096C175.506 416.885 175.703 417.493 176.098 417.92C176.493 418.336 177.031 418.544 177.714 418.544C178.397 418.544 178.935 418.336 179.33 417.92C179.735 417.493 179.938 416.885 179.938 416.096V411.184H181.762ZM187.369 420.144C186.675 420.144 186.051 420.021 185.497 419.776C184.953 419.52 184.521 419.179 184.201 418.752C183.881 418.315 183.71 417.829 183.689 417.296H185.577C185.609 417.669 185.785 417.984 186.105 418.24C186.435 418.485 186.846 418.608 187.337 418.608C187.849 418.608 188.243 418.512 188.521 418.32C188.809 418.117 188.953 417.861 188.953 417.552C188.953 417.221 188.793 416.976 188.473 416.816C188.163 416.656 187.667 416.48 186.985 416.288C186.323 416.107 185.785 415.931 185.369 415.76C184.953 415.589 184.59 415.328 184.281 414.976C183.982 414.624 183.833 414.16 183.833 413.584C183.833 413.115 183.971 412.688 184.249 412.304C184.526 411.909 184.921 411.6 185.433 411.376C185.955 411.152 186.553 411.04 187.225 411.04C188.227 411.04 189.033 411.296 189.641 411.808C190.259 412.309 190.59 412.997 190.633 413.872H188.809C188.777 413.477 188.617 413.163 188.329 412.928C188.041 412.693 187.651 412.576 187.161 412.576C186.681 412.576 186.313 412.667 186.057 412.848C185.801 413.029 185.673 413.269 185.673 413.568C185.673 413.803 185.758 414 185.929 414.16C186.099 414.32 186.307 414.448 186.553 414.544C186.798 414.629 187.161 414.741 187.641 414.88C188.281 415.051 188.803 415.227 189.209 415.408C189.625 415.579 189.982 415.835 190.281 416.176C190.579 416.517 190.734 416.971 190.745 417.536C190.745 418.037 190.606 418.485 190.329 418.88C190.051 419.275 189.657 419.584 189.145 419.808C188.643 420.032 188.051 420.144 187.369 420.144ZM199 412.672V417.552C199 417.883 199.075 418.123 199.224 418.272C199.384 418.411 199.651 418.48 200.024 418.48H201.144V420H199.704C198.883 420 198.253 419.808 197.816 419.424C197.379 419.04 197.16 418.416 197.16 417.552V412.672H196.12V411.184H197.16V408.992H199V411.184H201.144V412.672H199ZM210.809 411.184V420H208.985V418.96C208.697 419.323 208.318 419.611 207.849 419.824C207.39 420.027 206.9 420.128 206.377 420.128C205.684 420.128 205.06 419.984 204.505 419.696C203.961 419.408 203.529 418.981 203.209 418.416C202.9 417.851 202.745 417.168 202.745 416.368V411.184H204.553V416.096C204.553 416.885 204.75 417.493 205.145 417.92C205.54 418.336 206.078 418.544 206.761 418.544C207.444 418.544 207.982 418.336 208.377 417.92C208.782 417.493 208.985 416.885 208.985 416.096V411.184H210.809ZM215.04 412.464C215.306 412.016 215.658 411.669 216.096 411.424C216.544 411.168 217.072 411.04 217.68 411.04V412.928H217.216C216.501 412.928 215.957 413.109 215.584 413.472C215.221 413.835 215.04 414.464 215.04 415.36V420H213.216V411.184H215.04V412.464ZM221.18 412.48C221.49 412.075 221.911 411.733 222.444 411.456C222.978 411.179 223.58 411.04 224.252 411.04C225.02 411.04 225.719 411.232 226.348 411.616C226.988 411.989 227.49 412.517 227.852 413.2C228.215 413.883 228.396 414.667 228.396 415.552C228.396 416.437 228.215 417.232 227.852 417.936C227.49 418.629 226.988 419.173 226.348 419.568C225.719 419.952 225.02 420.144 224.252 420.144C223.58 420.144 222.983 420.011 222.46 419.744C221.938 419.467 221.511 419.125 221.18 418.72V424.192H219.356V411.184H221.18V412.48ZM226.54 415.552C226.54 414.944 226.412 414.421 226.156 413.984C225.911 413.536 225.58 413.2 225.164 412.976C224.759 412.741 224.322 412.624 223.852 412.624C223.394 412.624 222.956 412.741 222.54 412.976C222.135 413.211 221.804 413.552 221.548 414C221.303 414.448 221.18 414.976 221.18 415.584C221.18 416.192 221.303 416.725 221.548 417.184C221.804 417.632 222.135 417.973 222.54 418.208C222.956 418.443 223.394 418.56 223.852 418.56C224.322 418.56 224.759 418.443 225.164 418.208C225.58 417.963 225.911 417.611 226.156 417.152C226.412 416.693 226.54 416.16 226.54 415.552ZM231.128 410.016C230.797 410.016 230.52 409.904 230.296 409.68C230.072 409.456 229.96 409.179 229.96 408.848C229.96 408.517 230.072 408.24 230.296 408.016C230.52 407.792 230.797 407.68 231.128 407.68C231.448 407.68 231.72 407.792 231.944 408.016C232.168 408.24 232.28 408.517 232.28 408.848C232.28 409.179 232.168 409.456 231.944 409.68C231.72 409.904 231.448 410.016 231.128 410.016ZM232.024 411.184V420H230.2V411.184H232.024ZM237.619 420.144C236.925 420.144 236.301 420.021 235.747 419.776C235.203 419.52 234.771 419.179 234.451 418.752C234.131 418.315 233.96 417.829 233.939 417.296H235.827C235.859 417.669 236.035 417.984 236.355 418.24C236.685 418.485 237.096 418.608 237.587 418.608C238.099 418.608 238.493 418.512 238.771 418.32C239.059 418.117 239.203 417.861 239.203 417.552C239.203 417.221 239.043 416.976 238.723 416.816C238.413 416.656 237.917 416.48 237.235 416.288C236.573 416.107 236.035 415.931 235.619 415.76C235.203 415.589 234.84 415.328 234.531 414.976C234.232 414.624 234.083 414.16 234.083 413.584C234.083 413.115 234.221 412.688 234.499 412.304C234.776 411.909 235.171 411.6 235.683 411.376C236.205 411.152 236.803 411.04 237.475 411.04C238.477 411.04 239.283 411.296 239.891 411.808C240.509 412.309 240.84 412.997 240.883 413.872H239.059C239.027 413.477 238.867 413.163 238.579 412.928C238.291 412.693 237.901 412.576 237.411 412.576C236.931 412.576 236.563 412.667 236.307 412.848C236.051 413.029 235.923 413.269 235.923 413.568C235.923 413.803 236.008 414 236.179 414.16C236.349 414.32 236.557 414.448 236.803 414.544C237.048 414.629 237.411 414.741 237.891 414.88C238.531 415.051 239.053 415.227 239.459 415.408C239.875 415.579 240.232 415.835 240.531 416.176C240.829 416.517 240.984 416.971 240.995 417.536C240.995 418.037 240.856 418.485 240.579 418.88C240.301 419.275 239.907 419.584 239.395 419.808C238.893 420.032 238.301 420.144 237.619 420.144ZM255.202 415.376C255.202 415.707 255.181 416.005 255.138 416.272H248.402C248.455 416.976 248.717 417.541 249.186 417.968C249.655 418.395 250.231 418.608 250.914 418.608C251.895 418.608 252.589 418.197 252.994 417.376H254.962C254.695 418.187 254.21 418.853 253.506 419.376C252.813 419.888 251.949 420.144 250.914 420.144C250.071 420.144 249.314 419.957 248.642 419.584C247.981 419.2 247.458 418.667 247.074 417.984C246.701 417.291 246.514 416.491 246.514 415.584C246.514 414.677 246.695 413.883 247.058 413.2C247.431 412.507 247.949 411.973 248.61 411.6C249.282 411.227 250.05 411.04 250.914 411.04C251.746 411.04 252.487 411.221 253.138 411.584C253.789 411.947 254.295 412.459 254.658 413.12C255.021 413.771 255.202 414.523 255.202 415.376ZM253.298 414.8C253.287 414.128 253.047 413.589 252.578 413.184C252.109 412.779 251.527 412.576 250.834 412.576C250.205 412.576 249.666 412.779 249.218 413.184C248.77 413.579 248.503 414.117 248.418 414.8H253.298ZM264.981 411.184V420H263.157V418.96C262.869 419.323 262.49 419.611 262.021 419.824C261.562 420.027 261.072 420.128 260.549 420.128C259.856 420.128 259.232 419.984 258.677 419.696C258.133 419.408 257.701 418.981 257.381 418.416C257.072 417.851 256.917 417.168 256.917 416.368V411.184H258.725V416.096C258.725 416.885 258.922 417.493 259.317 417.92C259.712 418.336 260.25 418.544 260.933 418.544C261.616 418.544 262.154 418.336 262.549 417.92C262.954 417.493 263.157 416.885 263.157 416.096V411.184H264.981ZM275.096 411.04C275.778 411.04 276.381 411.179 276.904 411.456C277.437 411.723 277.853 412.059 278.152 412.464V411.184H279.992V420.144C279.992 420.955 279.821 421.675 279.48 422.304C279.138 422.944 278.642 423.445 277.992 423.808C277.352 424.171 276.584 424.352 275.688 424.352C274.493 424.352 273.501 424.069 272.712 423.504C271.922 422.949 271.474 422.192 271.368 421.232H273.176C273.314 421.691 273.608 422.059 274.056 422.336C274.514 422.624 275.058 422.768 275.688 422.768C276.424 422.768 277.016 422.544 277.464 422.096C277.922 421.648 278.152 420.997 278.152 420.144V418.672C277.842 419.088 277.421 419.44 276.888 419.728C276.365 420.005 275.768 420.144 275.096 420.144C274.328 420.144 273.624 419.952 272.984 419.568C272.354 419.173 271.853 418.629 271.48 417.936C271.117 417.232 270.936 416.437 270.936 415.552C270.936 414.667 271.117 413.883 271.48 413.2C271.853 412.517 272.354 411.989 272.984 411.616C273.624 411.232 274.328 411.04 275.096 411.04ZM278.152 415.584C278.152 414.976 278.024 414.448 277.768 414C277.522 413.552 277.197 413.211 276.792 412.976C276.386 412.741 275.949 412.624 275.48 412.624C275.01 412.624 274.573 412.741 274.168 412.976C273.762 413.2 273.432 413.536 273.176 413.984C272.93 414.421 272.808 414.944 272.808 415.552C272.808 416.16 272.93 416.693 273.176 417.152C273.432 417.611 273.762 417.963 274.168 418.208C274.584 418.443 275.021 418.56 275.48 418.56C275.949 418.56 276.386 418.443 276.792 418.208C277.197 417.973 277.522 417.632 277.768 417.184C278.024 416.725 278.152 416.192 278.152 415.584ZM284.212 412.464C284.478 412.016 284.83 411.669 285.268 411.424C285.716 411.168 286.244 411.04 286.852 411.04V412.928H286.388C285.673 412.928 285.129 413.109 284.756 413.472C284.393 413.835 284.212 414.464 284.212 415.36V420H282.388V411.184H284.212V412.464ZM287.92 415.552C287.92 414.667 288.101 413.883 288.464 413.2C288.837 412.517 289.339 411.989 289.968 411.616C290.608 411.232 291.312 411.04 292.08 411.04C292.773 411.04 293.376 411.179 293.888 411.456C294.411 411.723 294.827 412.059 295.136 412.464V411.184H296.976V420H295.136V418.688C294.827 419.104 294.405 419.451 293.872 419.728C293.339 420.005 292.731 420.144 292.048 420.144C291.291 420.144 290.597 419.952 289.968 419.568C289.339 419.173 288.837 418.629 288.464 417.936C288.101 417.232 287.92 416.437 287.92 415.552ZM295.136 415.584C295.136 414.976 295.008 414.448 294.752 414C294.507 413.552 294.181 413.211 293.776 412.976C293.371 412.741 292.933 412.624 292.464 412.624C291.995 412.624 291.557 412.741 291.152 412.976C290.747 413.2 290.416 413.536 290.16 413.984C289.915 414.421 289.792 414.944 289.792 415.552C289.792 416.16 289.915 416.693 290.16 417.152C290.416 417.611 290.747 417.963 291.152 418.208C291.568 418.443 292.005 418.56 292.464 418.56C292.933 418.56 293.371 418.443 293.776 418.208C294.181 417.973 294.507 417.632 294.752 417.184C295.008 416.725 295.136 416.192 295.136 415.584ZM302.78 418.368L305.276 411.184H307.212L303.852 420H301.676L298.332 411.184H300.284L302.78 418.368ZM309.519 410.016C309.188 410.016 308.911 409.904 308.687 409.68C308.463 409.456 308.351 409.179 308.351 408.848C308.351 408.517 308.463 408.24 308.687 408.016C308.911 407.792 309.188 407.68 309.519 407.68C309.839 407.68 310.111 407.792 310.335 408.016C310.559 408.24 310.671 408.517 310.671 408.848C310.671 409.179 310.559 409.456 310.335 409.68C310.111 409.904 309.839 410.016 309.519 410.016ZM310.415 411.184V420H308.591V411.184H310.415ZM312.201 415.552C312.201 414.667 312.383 413.883 312.745 413.2C313.119 412.517 313.62 411.989 314.249 411.616C314.889 411.232 315.599 411.04 316.377 411.04C316.953 411.04 317.519 411.168 318.073 411.424C318.639 411.669 319.087 412 319.417 412.416V408.16H321.257V420H319.417V418.672C319.119 419.099 318.703 419.451 318.169 419.728C317.647 420.005 317.044 420.144 316.361 420.144C315.593 420.144 314.889 419.952 314.249 419.568C313.62 419.173 313.119 418.629 312.745 417.936C312.383 417.232 312.201 416.437 312.201 415.552ZM319.417 415.584C319.417 414.976 319.289 414.448 319.033 414C318.788 413.552 318.463 413.211 318.057 412.976C317.652 412.741 317.215 412.624 316.745 412.624C316.276 412.624 315.839 412.741 315.433 412.976C315.028 413.2 314.697 413.536 314.441 413.984C314.196 414.421 314.073 414.944 314.073 415.552C314.073 416.16 314.196 416.693 314.441 417.152C314.697 417.611 315.028 417.963 315.433 418.208C315.849 418.443 316.287 418.56 316.745 418.56C317.215 418.56 317.652 418.443 318.057 418.208C318.463 417.973 318.788 417.632 319.033 417.184C319.289 416.725 319.417 416.192 319.417 415.584ZM323.045 415.552C323.045 414.667 323.226 413.883 323.589 413.2C323.962 412.517 324.464 411.989 325.093 411.616C325.733 411.232 326.437 411.04 327.205 411.04C327.898 411.04 328.501 411.179 329.013 411.456C329.536 411.723 329.952 412.059 330.261 412.464V411.184H332.101V420H330.261V418.688C329.952 419.104 329.53 419.451 328.997 419.728C328.464 420.005 327.856 420.144 327.173 420.144C326.416 420.144 325.722 419.952 325.093 419.568C324.464 419.173 323.962 418.629 323.589 417.936C323.226 417.232 323.045 416.437 323.045 415.552ZM330.261 415.584C330.261 414.976 330.133 414.448 329.877 414C329.632 413.552 329.306 413.211 328.901 412.976C328.496 412.741 328.058 412.624 327.589 412.624C327.12 412.624 326.682 412.741 326.277 412.976C325.872 413.2 325.541 413.536 325.285 413.984C325.04 414.421 324.917 414.944 324.917 415.552C324.917 416.16 325.04 416.693 325.285 417.152C325.541 417.611 325.872 417.963 326.277 418.208C326.693 418.443 327.13 418.56 327.589 418.56C328.058 418.56 328.496 418.443 328.901 418.208C329.306 417.973 329.632 417.632 329.877 417.184C330.133 416.725 330.261 416.192 330.261 415.584ZM59.872 439.04C60.5653 439.04 61.184 439.184 61.728 439.472C62.2827 439.76 62.7147 440.187 63.024 440.752C63.344 441.317 63.504 442 63.504 442.8V448H61.696V443.072C61.696 442.283 61.4987 441.68 61.104 441.264C60.7093 440.837 60.1707 440.624 59.488 440.624C58.8053 440.624 58.2613 440.837 57.856 441.264C57.4613 441.68 57.264 442.283 57.264 443.072V448H55.456V443.072C55.456 442.283 55.2587 441.68 54.864 441.264C54.4693 440.837 53.9307 440.624 53.248 440.624C52.5653 440.624 52.0213 440.837 51.616 441.264C51.2213 441.68 51.024 442.283 51.024 443.072V448H49.2V439.184H51.024V440.192C51.3227 439.829 51.7013 439.547 52.16 439.344C52.6187 439.141 53.1093 439.04 53.632 439.04C54.336 439.04 54.9653 439.189 55.52 439.488C56.0747 439.787 56.5013 440.219 56.8 440.784C57.0667 440.251 57.4827 439.829 58.048 439.52C58.6133 439.2 59.2213 439.04 59.872 439.04ZM66.753 438.016C66.4223 438.016 66.145 437.904 65.921 437.68C65.697 437.456 65.585 437.179 65.585 436.848C65.585 436.517 65.697 436.24 65.921 436.016C66.145 435.792 66.4223 435.68 66.753 435.68C67.073 435.68 67.345 435.792 67.569 436.016C67.793 436.24 67.905 436.517 67.905 436.848C67.905 437.179 67.793 437.456 67.569 437.68C67.345 437.904 67.073 438.016 66.753 438.016ZM67.649 439.184V448H65.825V439.184H67.649ZM70.7798 448.112C70.4491 448.112 70.1718 448 69.9478 447.776C69.7238 447.552 69.6118 447.275 69.6118 446.944C69.6118 446.613 69.7238 446.336 69.9478 446.112C70.1718 445.888 70.4491 445.776 70.7798 445.776C71.0998 445.776 71.3718 445.888 71.5958 446.112C71.8198 446.336 71.9318 446.613 71.9318 446.944C71.9318 447.275 71.8198 447.552 71.5958 447.776C71.3718 448 71.0998 448.112 70.7798 448.112ZM85.8354 440.192C85.8354 440.757 85.702 441.291 85.4354 441.792C85.1687 442.293 84.742 442.704 84.1554 443.024C83.5687 443.333 82.8167 443.488 81.8994 443.488H79.8834V448H78.0594V436.88H81.8994C82.7527 436.88 83.4727 437.029 84.0594 437.328C84.6567 437.616 85.0994 438.011 85.3874 438.512C85.686 439.013 85.8354 439.573 85.8354 440.192ZM81.8994 442C82.5927 442 83.11 441.845 83.4514 441.536C83.7927 441.216 83.9634 440.768 83.9634 440.192C83.9634 438.976 83.2754 438.368 81.8994 438.368H79.8834V442H81.8994ZM95.655 443.376C95.655 443.707 95.6337 444.005 95.591 444.272H88.855C88.9083 444.976 89.1697 445.541 89.639 445.968C90.1083 446.395 90.6843 446.608 91.367 446.608C92.3483 446.608 93.0417 446.197 93.447 445.376H95.415C95.1483 446.187 94.663 446.853 93.959 447.376C93.2657 447.888 92.4017 448.144 91.367 448.144C90.5243 448.144 89.767 447.957 89.095 447.584C88.4337 447.2 87.911 446.667 87.527 445.984C87.1537 445.291 86.967 444.491 86.967 443.584C86.967 442.677 87.1483 441.883 87.511 441.2C87.8843 440.507 88.4017 439.973 89.063 439.6C89.735 439.227 90.503 439.04 91.367 439.04C92.199 439.04 92.9403 439.221 93.591 439.584C94.2417 439.947 94.7483 440.459 95.111 441.12C95.4737 441.771 95.655 442.523 95.655 443.376ZM93.751 442.8C93.7403 442.128 93.5003 441.589 93.031 441.184C92.5617 440.779 91.9803 440.576 91.287 440.576C90.6577 440.576 90.119 440.779 89.671 441.184C89.223 441.579 88.9563 442.117 88.871 442.8H93.751ZM99.274 436.16V448H97.45V436.16H99.274ZM103.493 436.16V448H101.669V436.16H103.493ZM113.968 443.376C113.968 443.707 113.946 444.005 113.904 444.272H107.168C107.221 444.976 107.482 445.541 107.952 445.968C108.421 446.395 108.997 446.608 109.68 446.608C110.661 446.608 111.354 446.197 111.76 445.376H113.727C113.461 446.187 112.976 446.853 112.272 447.376C111.578 447.888 110.714 448.144 109.68 448.144C108.837 448.144 108.08 447.957 107.408 447.584C106.746 447.2 106.224 446.667 105.84 445.984C105.466 445.291 105.28 444.491 105.28 443.584C105.28 442.677 105.461 441.883 105.824 441.2C106.197 440.507 106.714 439.973 107.376 439.6C108.048 439.227 108.816 439.04 109.68 439.04C110.512 439.04 111.253 439.221 111.904 439.584C112.554 439.947 113.061 440.459 113.424 441.12C113.786 441.771 113.968 442.523 113.968 443.376ZM112.064 442.8C112.053 442.128 111.813 441.589 111.344 441.184C110.874 440.779 110.293 440.576 109.6 440.576C108.97 440.576 108.432 440.779 107.984 441.184C107.536 441.579 107.269 442.117 107.184 442.8H112.064ZM120.211 439.04C120.904 439.04 121.523 439.184 122.067 439.472C122.621 439.76 123.053 440.187 123.363 440.752C123.672 441.317 123.827 442 123.827 442.8V448H122.019V443.072C122.019 442.283 121.821 441.68 121.427 441.264C121.032 440.837 120.493 440.624 119.811 440.624C119.128 440.624 118.584 440.837 118.179 441.264C117.784 441.68 117.587 442.283 117.587 443.072V448H115.763V439.184H117.587V440.192C117.885 439.829 118.264 439.547 118.723 439.344C119.192 439.141 119.688 439.04 120.211 439.04ZM128.281 440.672V445.552C128.281 445.883 128.356 446.123 128.505 446.272C128.665 446.411 128.932 446.48 129.305 446.48H130.425V448H128.985C128.164 448 127.534 447.808 127.097 447.424C126.66 447.04 126.441 446.416 126.441 445.552V440.672H125.401V439.184H126.441V436.992H128.281V439.184H130.425V440.672H128.281ZM140.186 443.376C140.186 443.707 140.165 444.005 140.122 444.272H133.386C133.44 444.976 133.701 445.541 134.17 445.968C134.64 446.395 135.216 446.608 135.898 446.608C136.88 446.608 137.573 446.197 137.978 445.376H139.946C139.68 446.187 139.194 446.853 138.49 447.376C137.797 447.888 136.933 448.144 135.898 448.144C135.056 448.144 134.298 447.957 133.626 447.584C132.965 447.2 132.442 446.667 132.058 445.984C131.685 445.291 131.498 444.491 131.498 443.584C131.498 442.677 131.68 441.883 132.042 441.2C132.416 440.507 132.933 439.973 133.594 439.6C134.266 439.227 135.034 439.04 135.898 439.04C136.73 439.04 137.472 439.221 138.122 439.584C138.773 439.947 139.28 440.459 139.642 441.12C140.005 441.771 140.186 442.523 140.186 443.376ZM138.282 442.8C138.272 442.128 138.032 441.589 137.562 441.184C137.093 440.779 136.512 440.576 135.818 440.576C135.189 440.576 134.65 440.779 134.202 441.184C133.754 441.579 133.488 442.117 133.402 442.8H138.282ZM145.181 448.144C144.488 448.144 143.864 448.021 143.309 447.776C142.765 447.52 142.333 447.179 142.013 446.752C141.693 446.315 141.523 445.829 141.501 445.296H143.389C143.421 445.669 143.597 445.984 143.917 446.24C144.248 446.485 144.659 446.608 145.149 446.608C145.661 446.608 146.056 446.512 146.333 446.32C146.621 446.117 146.765 445.861 146.765 445.552C146.765 445.221 146.605 444.976 146.285 444.816C145.976 444.656 145.48 444.48 144.797 444.288C144.136 444.107 143.597 443.931 143.181 443.76C142.765 443.589 142.403 443.328 142.093 442.976C141.795 442.624 141.645 442.16 141.645 441.584C141.645 441.115 141.784 440.688 142.061 440.304C142.339 439.909 142.733 439.6 143.245 439.376C143.768 439.152 144.365 439.04 145.037 439.04C146.04 439.04 146.845 439.296 147.453 439.808C148.072 440.309 148.403 440.997 148.445 441.872H146.621C146.589 441.477 146.429 441.163 146.141 440.928C145.853 440.693 145.464 440.576 144.973 440.576C144.493 440.576 144.125 440.667 143.869 440.848C143.613 441.029 143.485 441.269 143.485 441.568C143.485 441.803 143.571 442 143.741 442.16C143.912 442.32 144.12 442.448 144.365 442.544C144.611 442.629 144.973 442.741 145.453 442.88C146.093 443.051 146.616 443.227 147.021 443.408C147.437 443.579 147.795 443.835 148.093 444.176C148.392 444.517 148.547 444.971 148.557 445.536C148.557 446.037 148.419 446.485 148.141 446.88C147.864 447.275 147.469 447.584 146.957 447.808C146.456 448.032 145.864 448.144 145.181 448.144ZM149.92 443.552C149.92 442.667 150.101 441.883 150.464 441.2C150.837 440.517 151.339 439.989 151.968 439.616C152.608 439.232 153.317 439.04 154.096 439.04C154.779 439.04 155.381 439.179 155.904 439.456C156.437 439.733 156.848 440.069 157.136 440.464V439.184H158.976V452.192H157.136V446.72C156.848 447.115 156.432 447.451 155.888 447.728C155.344 448.005 154.725 448.144 154.032 448.144C153.275 448.144 152.581 447.952 151.952 447.568C151.333 447.173 150.837 446.629 150.464 445.936C150.101 445.232 149.92 444.437 149.92 443.552ZM157.136 443.584C157.136 442.976 157.008 442.448 156.752 442C156.507 441.552 156.181 441.211 155.776 440.976C155.371 440.741 154.933 440.624 154.464 440.624C153.995 440.624 153.557 440.741 153.152 440.976C152.747 441.2 152.416 441.536 152.16 441.984C151.915 442.421 151.792 442.944 151.792 443.552C151.792 444.16 151.915 444.693 152.16 445.152C152.416 445.611 152.747 445.963 153.152 446.208C153.568 446.443 154.005 446.56 154.464 446.56C154.933 446.56 155.371 446.443 155.776 446.208C156.181 445.973 156.507 445.632 156.752 445.184C157.008 444.725 157.136 444.192 157.136 443.584ZM169.356 439.184V448H167.532V446.96C167.244 447.323 166.865 447.611 166.396 447.824C165.937 448.027 165.447 448.128 164.924 448.128C164.231 448.128 163.607 447.984 163.052 447.696C162.508 447.408 162.076 446.981 161.756 446.416C161.447 445.851 161.292 445.168 161.292 444.368V439.184H163.1V444.096C163.1 444.885 163.297 445.493 163.692 445.92C164.087 446.336 164.625 446.544 165.308 446.544C165.991 446.544 166.529 446.336 166.924 445.92C167.329 445.493 167.532 444.885 167.532 444.096V439.184H169.356ZM179.843 443.376C179.843 443.707 179.821 444.005 179.779 444.272H173.043C173.096 444.976 173.357 445.541 173.827 445.968C174.296 446.395 174.872 446.608 175.555 446.608C176.536 446.608 177.229 446.197 177.635 445.376H179.602C179.336 446.187 178.851 446.853 178.147 447.376C177.453 447.888 176.589 448.144 175.555 448.144C174.712 448.144 173.955 447.957 173.283 447.584C172.621 447.2 172.099 446.667 171.715 445.984C171.341 445.291 171.155 444.491 171.155 443.584C171.155 442.677 171.336 441.883 171.699 441.2C172.072 440.507 172.589 439.973 173.251 439.6C173.923 439.227 174.691 439.04 175.555 439.04C176.387 439.04 177.128 439.221 177.779 439.584C178.429 439.947 178.936 440.459 179.299 441.12C179.661 441.771 179.843 442.523 179.843 443.376ZM177.939 442.8C177.928 442.128 177.688 441.589 177.219 441.184C176.749 440.779 176.168 440.576 175.475 440.576C174.845 440.576 174.307 440.779 173.859 441.184C173.411 441.579 173.144 442.117 173.059 442.8H177.939ZM193.874 443.376C193.874 443.707 193.852 444.005 193.81 444.272H187.074C187.127 444.976 187.388 445.541 187.858 445.968C188.327 446.395 188.903 446.608 189.586 446.608C190.567 446.608 191.26 446.197 191.666 445.376H193.634C193.367 446.187 192.882 446.853 192.178 447.376C191.484 447.888 190.62 448.144 189.586 448.144C188.743 448.144 187.986 447.957 187.314 447.584C186.652 447.2 186.13 446.667 185.746 445.984C185.372 445.291 185.186 444.491 185.186 443.584C185.186 442.677 185.367 441.883 185.73 441.2C186.103 440.507 186.62 439.973 187.282 439.6C187.954 439.227 188.722 439.04 189.586 439.04C190.418 439.04 191.159 439.221 191.81 439.584C192.46 439.947 192.967 440.459 193.33 441.12C193.692 441.771 193.874 442.523 193.874 443.376ZM191.97 442.8C191.959 442.128 191.719 441.589 191.25 441.184C190.78 440.779 190.199 440.576 189.506 440.576C188.876 440.576 188.338 440.779 187.89 441.184C187.442 441.579 187.175 442.117 187.09 442.8H191.97ZM197.797 440.672V445.552C197.797 445.883 197.871 446.123 198.021 446.272C198.181 446.411 198.447 446.48 198.821 446.48H199.941V448H198.501C197.679 448 197.05 447.808 196.613 447.424C196.175 447.04 195.957 446.416 195.957 445.552V440.672H194.917V439.184H195.957V436.992H197.797V439.184H199.941V440.672H197.797ZM209.186 446.368L211.682 439.184H213.618L210.258 448H208.082L204.738 439.184H206.69L209.186 446.368ZM223.077 443.376C223.077 443.707 223.056 444.005 223.013 444.272H216.277C216.33 444.976 216.592 445.541 217.061 445.968C217.53 446.395 218.106 446.608 218.789 446.608C219.77 446.608 220.464 446.197 220.869 445.376H222.837C222.57 446.187 222.085 446.853 221.381 447.376C220.688 447.888 219.824 448.144 218.789 448.144C217.946 448.144 217.189 447.957 216.517 447.584C215.856 447.2 215.333 446.667 214.949 445.984C214.576 445.291 214.389 444.491 214.389 443.584C214.389 442.677 214.57 441.883 214.933 441.2C215.306 440.507 215.824 439.973 216.485 439.6C217.157 439.227 217.925 439.04 218.789 439.04C219.621 439.04 220.362 439.221 221.013 439.584C221.664 439.947 222.17 440.459 222.533 441.12C222.896 441.771 223.077 442.523 223.077 443.376ZM221.173 442.8C221.162 442.128 220.922 441.589 220.453 441.184C219.984 440.779 219.402 440.576 218.709 440.576C218.08 440.576 217.541 440.779 217.093 441.184C216.645 441.579 216.378 442.117 216.293 442.8H221.173ZM226.696 436.16V448H224.872V436.16H226.696ZM230.019 438.016C229.688 438.016 229.411 437.904 229.187 437.68C228.963 437.456 228.851 437.179 228.851 436.848C228.851 436.517 228.963 436.24 229.187 436.016C229.411 435.792 229.688 435.68 230.019 435.68C230.339 435.68 230.611 435.792 230.835 436.016C231.059 436.24 231.171 436.517 231.171 436.848C231.171 437.179 231.059 437.456 230.835 437.68C230.611 437.904 230.339 438.016 230.019 438.016ZM230.915 439.184V448H229.091V439.184H230.915ZM235.437 440.672V445.552C235.437 445.883 235.512 446.123 235.661 446.272C235.821 446.411 236.088 446.48 236.461 446.48H237.581V448H236.141C235.32 448 234.691 447.808 234.253 447.424C233.816 447.04 233.597 446.416 233.597 445.552V440.672H232.557V439.184H233.597V436.992H235.437V439.184H237.581V440.672H235.437ZM242.811 443.552C242.811 442.667 242.992 441.883 243.355 441.2C243.728 440.517 244.229 439.989 244.859 439.616C245.499 439.232 246.203 439.04 246.971 439.04C247.664 439.04 248.267 439.179 248.779 439.456C249.301 439.723 249.717 440.059 250.027 440.464V439.184H251.867V448H250.027V446.688C249.717 447.104 249.296 447.451 248.763 447.728C248.229 448.005 247.621 448.144 246.939 448.144C246.181 448.144 245.488 447.952 244.859 447.568C244.229 447.173 243.728 446.629 243.355 445.936C242.992 445.232 242.811 444.437 242.811 443.552ZM250.027 443.584C250.027 442.976 249.899 442.448 249.643 442C249.397 441.552 249.072 441.211 248.667 440.976C248.261 440.741 247.824 440.624 247.355 440.624C246.885 440.624 246.448 440.741 246.043 440.976C245.637 441.2 245.307 441.536 245.051 441.984C244.805 442.421 244.683 442.944 244.683 443.552C244.683 444.16 244.805 444.693 245.051 445.152C245.307 445.611 245.637 445.963 246.043 446.208C246.459 446.443 246.896 446.56 247.355 446.56C247.824 446.56 248.261 446.443 248.667 446.208C249.072 445.973 249.397 445.632 249.643 445.184C249.899 444.725 250.027 444.192 250.027 443.584ZM256.087 436.16V448H254.263V436.16H256.087ZM259.409 438.016C259.079 438.016 258.801 437.904 258.577 437.68C258.353 437.456 258.241 437.179 258.241 436.848C258.241 436.517 258.353 436.24 258.577 436.016C258.801 435.792 259.079 435.68 259.409 435.68C259.729 435.68 260.001 435.792 260.225 436.016C260.449 436.24 260.561 436.517 260.561 436.848C260.561 437.179 260.449 437.456 260.225 437.68C260.001 437.904 259.729 438.016 259.409 438.016ZM260.305 439.184V448H258.481V439.184H260.305ZM262.092 443.552C262.092 442.667 262.273 441.883 262.636 441.2C263.009 440.517 263.511 439.989 264.14 439.616C264.78 439.232 265.489 439.04 266.268 439.04C266.951 439.04 267.553 439.179 268.076 439.456C268.609 439.733 269.02 440.069 269.308 440.464V439.184H271.148V452.192H269.308V446.72C269.02 447.115 268.604 447.451 268.06 447.728C267.516 448.005 266.897 448.144 266.204 448.144C265.447 448.144 264.753 447.952 264.124 447.568C263.505 447.173 263.009 446.629 262.636 445.936C262.273 445.232 262.092 444.437 262.092 443.552ZM269.308 443.584C269.308 442.976 269.18 442.448 268.924 442C268.679 441.552 268.353 441.211 267.948 440.976C267.543 440.741 267.105 440.624 266.636 440.624C266.167 440.624 265.729 440.741 265.324 440.976C264.919 441.2 264.588 441.536 264.332 441.984C264.087 442.421 263.964 442.944 263.964 443.552C263.964 444.16 264.087 444.693 264.332 445.152C264.588 445.611 264.919 445.963 265.324 446.208C265.74 446.443 266.177 446.56 266.636 446.56C267.105 446.56 267.543 446.443 267.948 446.208C268.353 445.973 268.679 445.632 268.924 445.184C269.18 444.725 269.308 444.192 269.308 443.584ZM281.528 439.184V448H279.704V446.96C279.416 447.323 279.037 447.611 278.568 447.824C278.109 448.027 277.618 448.128 277.096 448.128C276.402 448.128 275.778 447.984 275.224 447.696C274.68 447.408 274.248 446.981 273.928 446.416C273.618 445.851 273.464 445.168 273.464 444.368V439.184H275.272V444.096C275.272 444.885 275.469 445.493 275.864 445.92C276.258 446.336 276.797 446.544 277.48 446.544C278.162 446.544 278.701 446.336 279.096 445.92C279.501 445.493 279.704 444.885 279.704 444.096V439.184H281.528ZM283.326 443.552C283.326 442.667 283.508 441.883 283.87 441.2C284.244 440.517 284.745 439.989 285.374 439.616C286.014 439.232 286.718 439.04 287.486 439.04C288.18 439.04 288.782 439.179 289.294 439.456C289.817 439.723 290.233 440.059 290.542 440.464V439.184H292.382V448H290.542V446.688C290.233 447.104 289.812 447.451 289.278 447.728C288.745 448.005 288.137 448.144 287.454 448.144C286.697 448.144 286.004 447.952 285.374 447.568C284.745 447.173 284.244 446.629 283.87 445.936C283.508 445.232 283.326 444.437 283.326 443.552ZM290.542 443.584C290.542 442.976 290.414 442.448 290.158 442C289.913 441.552 289.588 441.211 289.182 440.976C288.777 440.741 288.34 440.624 287.87 440.624C287.401 440.624 286.964 440.741 286.558 440.976C286.153 441.2 285.822 441.536 285.566 441.984C285.321 442.421 285.198 442.944 285.198 443.552C285.198 444.16 285.321 444.693 285.566 445.152C285.822 445.611 286.153 445.963 286.558 446.208C286.974 446.443 287.412 446.56 287.87 446.56C288.34 446.56 288.777 446.443 289.182 446.208C289.588 445.973 289.913 445.632 290.158 445.184C290.414 444.725 290.542 444.192 290.542 443.584ZM305.45 439.04C306.143 439.04 306.762 439.184 307.306 439.472C307.861 439.76 308.293 440.187 308.602 440.752C308.922 441.317 309.082 442 309.082 442.8V448H307.274V443.072C307.274 442.283 307.077 441.68 306.682 441.264C306.287 440.837 305.749 440.624 305.066 440.624C304.383 440.624 303.839 440.837 303.434 441.264C303.039 441.68 302.842 442.283 302.842 443.072V448H301.034V443.072C301.034 442.283 300.837 441.68 300.442 441.264C300.047 440.837 299.509 440.624 298.826 440.624C298.143 440.624 297.599 440.837 297.194 441.264C296.799 441.68 296.602 442.283 296.602 443.072V448H294.778V439.184H296.602V440.192C296.901 439.829 297.279 439.547 297.738 439.344C298.197 439.141 298.687 439.04 299.21 439.04C299.914 439.04 300.543 439.189 301.098 439.488C301.653 439.787 302.079 440.219 302.378 440.784C302.645 440.251 303.061 439.829 303.626 439.52C304.191 439.2 304.799 439.04 305.45 439.04Z" fill="white"/>
<path d="M188.53 510.53C188.823 510.237 188.823 509.763 188.53 509.47L183.757 504.697C183.464 504.404 182.99 504.404 182.697 504.697C182.404 504.99 182.404 505.464 182.697 505.757L186.939 510L182.697 514.243C182.404 514.536 182.404 515.01 182.697 515.303C182.99 515.596 183.464 515.596 183.757 515.303L188.53 510.53ZM164 510.75H188V509.25H164V510.75Z" fill="#FCD980"/>
<path d="M58.784 504.88L54.608 516H52.496L48.304 504.88H50.256L53.552 514.128L56.864 504.88H58.784ZM61.2374 506.016C60.9067 506.016 60.6294 505.904 60.4054 505.68C60.1814 505.456 60.0694 505.179 60.0694 504.848C60.0694 504.517 60.1814 504.24 60.4054 504.016C60.6294 503.792 60.9067 503.68 61.2374 503.68C61.5574 503.68 61.8294 503.792 62.0534 504.016C62.2774 504.24 62.3894 504.517 62.3894 504.848C62.3894 505.179 62.2774 505.456 62.0534 505.68C61.8294 505.904 61.5574 506.016 61.2374 506.016ZM62.1334 507.184V516H60.3094V507.184H62.1334ZM72.6081 511.376C72.6081 511.707 72.5868 512.005 72.5441 512.272H65.8081C65.8615 512.976 66.1228 513.541 66.5921 513.968C67.0615 514.395 67.6375 514.608 68.3201 514.608C69.3015 514.608 69.9948 514.197 70.4001 513.376H72.3681C72.1015 514.187 71.6161 514.853 70.9121 515.376C70.2188 515.888 69.3548 516.144 68.3201 516.144C67.4775 516.144 66.7201 515.957 66.0481 515.584C65.3868 515.2 64.8641 514.667 64.4801 513.984C64.1068 513.291 63.9201 512.491 63.9201 511.584C63.9201 510.677 64.1015 509.883 64.4641 509.2C64.8375 508.507 65.3548 507.973 66.0161 507.6C66.6881 507.227 67.4561 507.04 68.3201 507.04C69.1521 507.04 69.8935 507.221 70.5441 507.584C71.1948 507.947 71.7015 508.459 72.0641 509.12C72.4268 509.771 72.6081 510.523 72.6081 511.376ZM70.7041 510.8C70.6935 510.128 70.4535 509.589 69.9841 509.184C69.5148 508.779 68.9335 508.576 68.2401 508.576C67.6108 508.576 67.0721 508.779 66.6241 509.184C66.1761 509.579 65.9095 510.117 65.8241 510.8H70.7041ZM86.2431 507.184L83.5071 516H81.5871L79.8111 509.488L78.0351 516H76.1151L73.3631 507.184H75.2191L77.0591 514.272L78.9311 507.184H80.8351L82.6271 514.24L84.4511 507.184H86.2431ZM93.5865 508.48C93.8958 508.075 94.3172 507.733 94.8505 507.456C95.3838 507.179 95.9865 507.04 96.6585 507.04C97.4265 507.04 98.1252 507.232 98.7545 507.616C99.3945 507.989 99.8958 508.517 100.259 509.2C100.621 509.883 100.803 510.667 100.803 511.552C100.803 512.437 100.621 513.232 100.259 513.936C99.8958 514.629 99.3945 515.173 98.7545 515.568C98.1252 515.952 97.4265 516.144 96.6585 516.144C95.9865 516.144 95.3892 516.011 94.8665 515.744C94.3438 515.467 93.9172 515.125 93.5865 514.72V520.192H91.7625V507.184H93.5865V508.48ZM98.9465 511.552C98.9465 510.944 98.8185 510.421 98.5625 509.984C98.3172 509.536 97.9865 509.2 97.5705 508.976C97.1652 508.741 96.7278 508.624 96.2585 508.624C95.7998 508.624 95.3625 508.741 94.9465 508.976C94.5412 509.211 94.2105 509.552 93.9545 510C93.7092 510.448 93.5865 510.976 93.5865 511.584C93.5865 512.192 93.7092 512.725 93.9545 513.184C94.2105 513.632 94.5412 513.973 94.9465 514.208C95.3625 514.443 95.7998 514.56 96.2585 514.56C96.7278 514.56 97.1652 514.443 97.5705 514.208C97.9865 513.963 98.3172 513.611 98.5625 513.152C98.8185 512.693 98.9465 512.16 98.9465 511.552ZM104.43 508.464C104.697 508.016 105.049 507.669 105.486 507.424C105.934 507.168 106.462 507.04 107.07 507.04V508.928H106.606C105.892 508.928 105.348 509.109 104.974 509.472C104.612 509.835 104.43 510.464 104.43 511.36V516H102.606V507.184H104.43V508.464ZM112.571 516.144C111.739 516.144 110.987 515.957 110.315 515.584C109.643 515.2 109.115 514.667 108.731 513.984C108.347 513.291 108.155 512.491 108.155 511.584C108.155 510.688 108.352 509.893 108.747 509.2C109.142 508.507 109.68 507.973 110.363 507.6C111.046 507.227 111.808 507.04 112.651 507.04C113.494 507.04 114.256 507.227 114.939 507.6C115.622 507.973 116.16 508.507 116.555 509.2C116.95 509.893 117.147 510.688 117.147 511.584C117.147 512.48 116.944 513.275 116.539 513.968C116.134 514.661 115.579 515.2 114.875 515.584C114.182 515.957 113.414 516.144 112.571 516.144ZM112.571 514.56C113.04 514.56 113.478 514.448 113.883 514.224C114.299 514 114.635 513.664 114.891 513.216C115.147 512.768 115.275 512.224 115.275 511.584C115.275 510.944 115.152 510.405 114.907 509.968C114.662 509.52 114.336 509.184 113.931 508.96C113.526 508.736 113.088 508.624 112.619 508.624C112.15 508.624 111.712 508.736 111.307 508.96C110.912 509.184 110.598 509.52 110.363 509.968C110.128 510.405 110.011 510.944 110.011 511.584C110.011 512.533 110.251 513.269 110.731 513.792C111.222 514.304 111.835 514.56 112.571 514.56ZM119.878 506.016C119.547 506.016 119.27 505.904 119.046 505.68C118.822 505.456 118.71 505.179 118.71 504.848C118.71 504.517 118.822 504.24 119.046 504.016C119.27 503.792 119.547 503.68 119.878 503.68C120.198 503.68 120.47 503.792 120.694 504.016C120.918 504.24 121.03 504.517 121.03 504.848C121.03 505.179 120.918 505.456 120.694 505.68C120.47 505.904 120.198 506.016 119.878 506.016ZM120.774 517.728C120.774 518.592 120.555 519.216 120.118 519.6C119.691 519.995 119.067 520.192 118.246 520.192H117.302V518.656H117.926C118.299 518.656 118.561 518.581 118.71 518.432C118.87 518.293 118.95 518.059 118.95 517.728V507.184H120.774V517.728ZM131.249 511.376C131.249 511.707 131.227 512.005 131.185 512.272H124.449C124.502 512.976 124.763 513.541 125.233 513.968C125.702 514.395 126.278 514.608 126.961 514.608C127.942 514.608 128.635 514.197 129.041 513.376H131.009C130.742 514.187 130.257 514.853 129.553 515.376C128.859 515.888 127.995 516.144 126.961 516.144C126.118 516.144 125.361 515.957 124.689 515.584C124.027 515.2 123.505 514.667 123.121 513.984C122.747 513.291 122.561 512.491 122.561 511.584C122.561 510.677 122.742 509.883 123.105 509.2C123.478 508.507 123.995 507.973 124.657 507.6C125.329 507.227 126.097 507.04 126.961 507.04C127.793 507.04 128.534 507.221 129.185 507.584C129.835 507.947 130.342 508.459 130.705 509.12C131.067 509.771 131.249 510.523 131.249 511.376ZM129.345 510.8C129.334 510.128 129.094 509.589 128.625 509.184C128.155 508.779 127.574 508.576 126.881 508.576C126.251 508.576 125.713 508.779 125.265 509.184C124.817 509.579 124.55 510.117 124.465 510.8H129.345ZM132.436 511.584C132.436 510.677 132.617 509.883 132.98 509.2C133.353 508.507 133.865 507.973 134.516 507.6C135.166 507.227 135.913 507.04 136.756 507.04C137.822 507.04 138.702 507.296 139.396 507.808C140.1 508.309 140.574 509.029 140.82 509.968H138.852C138.692 509.531 138.436 509.189 138.084 508.944C137.732 508.699 137.289 508.576 136.756 508.576C136.009 508.576 135.412 508.843 134.964 509.376C134.526 509.899 134.308 510.635 134.308 511.584C134.308 512.533 134.526 513.275 134.964 513.808C135.412 514.341 136.009 514.608 136.756 514.608C137.812 514.608 138.51 514.144 138.852 513.216H140.82C140.564 514.112 140.084 514.827 139.38 515.36C138.676 515.883 137.801 516.144 136.756 516.144C135.913 516.144 135.166 515.957 134.516 515.584C133.865 515.2 133.353 514.667 132.98 513.984C132.617 513.291 132.436 512.491 132.436 511.584ZM144.766 508.672V513.552C144.766 513.883 144.84 514.123 144.99 514.272C145.15 514.411 145.416 514.48 145.79 514.48H146.91V516H145.47C144.648 516 144.019 515.808 143.582 515.424C143.144 515.04 142.926 514.416 142.926 513.552V508.672H141.886V507.184H142.926V504.992H144.766V507.184H146.91V508.672H144.766Z" fill="#FCD980"/>
<defs>
<linearGradient id="paint0_linear_706_952" x1="606.5" y1="516" x2="61" y2="-92.5" gradientUnits="userSpaceOnUse">
<stop stop-color="#1C1E53"/>
<stop offset="1" stop-color="#1C1E53" stop-opacity="0.42"/>
</linearGradient>
</defs>
</svg>
